<?xml version="1.0" encoding="UTF-8"?>
<svg id="Ebene_1" xmlns="http://www.w3.org/2000/svg" version="1.1" xmlns:xlink="http://www.w3.org/1999/xlink" viewBox="0 0 1024 1024">
  <!-- Generator: Adobe Illustrator 30.1.0, SVG Export Plug-In . SVG Version: 2.1.1 Build 136)  -->
  <defs>
    <style>
      .st0 {
        fill: #ff6b6b;
      }

      .st1 {
        fill: #fff;
      }

      .st2 {
        fill: none;
      }

      .st3 {
        fill: url(#Unbenannter_Verlauf_22);
        opacity: .5;
      }

      .st4 {
        clip-path: url(#clippath);
      }
    </style>
    <clipPath id="clippath">
      <rect class="st2" width="1024" height="1024"/>
    </clipPath>
    <radialGradient id="Unbenannter_Verlauf_22" data-name="Unbenannter Verlauf 22" cx="-252.7" cy="1178.9" fx="-252.7" fy="1178.9" r="1248" gradientUnits="userSpaceOnUse">
      <stop offset="0" stop-color="#fff"/>
      <stop offset="1" stop-color="#fff" stop-opacity="0"/>
    </radialGradient>
  </defs>
  <rect class="st0" width="1024" height="1024"/>
  <path class="st1" d="M216.9,780.5c11.3,40.8,45.2,68.7,82,86.3,36,17.3,77.3,24.4,116.9,27.5,41.3,3.3,82.9,2.4,123.9-3.6,75.7-11.2,146.3-45.1,207.1-90.8,76.9-57.9,134.3-137.2,184.7-218.1,3.5-5.5.3-15.5-2.1-20.6-5-10.6-14.3-19.3-25.1-23.9-40.3-17.1-85.1-24.9-127.8-32.8-66.8-12.5-134.5-21.6-202.3-26.6-69.6-5.2-140.5-7.6-209.9,1.8-47.2,6.3-107.7,18.2-138.7,58.5-16.6,21.7-20.2,46.2-16.5,70.7-9.7-6.2-19.3-12.8-28.9-20-2.4-1.8-4.8-3.7-7.2-5.5-.4-.3-.7-.6-1-.8-.4-.3-1.1-.9-2.3-1.9-4.7-3.8-9.2-7.8-13.7-11.8-8-7.2-24.2-16.2-33.8-6.1-9.4,9.9,0,26.1,7.8,33.5,30.6,28.6,64.7,52.9,101.1,73,2.2,4,4.5,7.9,6.8,11.7-18.4,30.1-30.8,64.1-20.9,99.6ZM273.1,641.2c-.1-.3-.2-.6-.3-.8-1.7-5-3-10.2-3.9-15.4-.2-1.1-.4-2.1-.5-3.2-.2-2.4-.2-4.8-.2-7.1,0-2.3.2-4.7.5-7,0-.5,0-.9.1-1.3,0,0,0,0,0,0,1.1-4.6,2.8-9.1,4.8-13.4.4-.9,1.5-2.8,2.2-3.9.7-.9,1.3-1.8,2-2.8,3-3.9,6.5-7.4,10.2-10.7,1.8-1.6,3.6-3.1,5.5-4.5.4-.3.7-.6,1-.8.2-.1.5-.3.9-.5,4.7-3.1,9.7-5.8,14.8-8.3,10.9-5.4,22.5-9.4,34.2-12.8,2.9-.9,5.9-1.6,8.9-2.4,0,0,.1,0,.2,0,1.6-.4,3.2-.7,4.8-1.1,7.3-1.6,14.6-2.9,21.9-4.1,15.2-2.5,30.6-4.1,45.9-5.3,34-2.7,68.2-2.9,102.3-1.9,8.6.2,17.2.6,25.8,1,2.2.1,4.3.2,6.5.3.6,0,1,0,1.3,0,0,0,0,0,0,0,5.1.3,10.1.6,15.2,1,18,1.2,36,2.7,54,4.5,64.5,6.3,128.7,15.6,192.2,28.6,10.7,2.2,21.4,4.5,32,7-64.8,97.9-145.5,186.7-255.8,233-14.1,5.9-28.6,10.6-43.1,15.4-3.3,1.1-6.7,2.1-10.1,3-1.1.3-2.1.6-3.2.8-.3,0-4.7,1.1-5.5,1.3-17.7,3.9-35.7,6.4-53.8,8.1-42.6,4-77.5,3.4-117.2-2.6-10.8-1.6-21.6-3.8-32.2-6.5-2.2-.5-4.4-1.1-6.6-1.7-.7-.2-1.1-.3-1.5-.4-.7-.2-1.3-.4-2-.6-5.5-1.7-10.8-3.8-16.1-5.9-4.3-1.7-8.5-3.7-12.6-5.8-.4-.3-1.1-.6-1.9-1.2-2.2-1.3-4.4-2.7-6.5-4.1-1.4-.9-2.7-1.9-4-2.8-.3-.2-.5-.5-.9-.8-1.7-1.5-3.3-3.1-4.9-4.7,0,0-.1-.2-.2-.3-1.1-1.3-2.1-2.8-3.1-4.2,0-.1-.1-.2-.2-.3,0,0,0,0,0,0-.8-1.5-1.5-3.1-2.2-4.6-.2-.4-.3-.7-.4-1,0,0,0,0,0-.1-1-3.1-1.6-6.3-2.1-9.5.3,1.6-.2-4-.2-5.2,0-2.6.2-5.2.4-7.8.2-2,.4-4,.7-6,0-.6.9-5,1-5.8,1.3-5.8,3.1-11.5,5.2-17.2,4.9-13.3,11.8-25.9,19.2-37.9.3-.4.4-.8.6-1.3,40.3,15.9,82.5,27.2,125.3,34,105.8,16.9,218.9,5.4,314.7-44.4,21.8-11.3,43.3-24.7,61.7-41.1,18.5-16.5-20.8-57.8-39.7-45.1-43.9,29.7-88.1,54.2-139.4,68.9-50,14.4-103,18.5-154.8,16.4-51.1-2.2-103.6-13.2-150.1-29.4-13.8-4.8-27-10-39.6-15.5-.3-.7-.6-1.5-.9-2.2Z"/>
  <path class="st1" d="M1024,0h-495.8c-19.3,38.7-30.2,82.3-30.2,128.5,0,159.3,129.2,288.5,288.5,288.5s185.4-49.4,237.5-124.7V0Z"/>
  <g class="st4">
    <circle class="st3" cx="-252.7" cy="1178.9" r="1248"/>
  </g>
</svg>