<?xml version="1.0" encoding="UTF-8"?>
<svg id="Background" xmlns="http://www.w3.org/2000/svg" viewBox="0 0 272.44 378.8">
  <path d="M138.21,2.19c16.76,2.14,27.39,13.68,29.86,30.79,7.99.38,15.88.46,23.81,1.41,6.25.75,11.03,4.68,13.29,10.35,1.44,3.63,2.3,7.3,3.14,11.26,12.09-1.62,27.45-3.22,39.34.17,14.44,4.13,19.86,16.3,21.5,30.23.76,6.44,1.21,12.67,1.13,19.2l-.37,28.63-.35,15.85-.87,34.03-.73,26.82-2.81,116.13-.45,19.74c-.26,11.51-6.97,21.5-17.42,26.24-5.49,2.49-11.19,3.9-17.23,4l-14.02.23-65.44.31-29.7.34-25.46.21-6.29.29-23.38-.02c-.34,0-.97.45-.78.39h-19.66c-8.15,0-16.47-1.51-24.11-4.76s-12.49-8.46-15.15-15.81c-1.92-5.32-2.4-10.7-2.46-16.48l-.44-45.08-1.41-52.8c-.4-14.82-.52-29.16-.13-43.9l.52-19.74,1.2-43.51.46-30.46c.11-7.52.72-14.68,2.17-21.98,3.13-15.73,11.48-25.85,27.96-27.6,8.41-.9,16.64-1.04,25.17-1.01,1.06-4.95,2.57-9.61,5.78-13.48,8.53-10.29,23.55-7.57,35.36-8.85,2.11-17.29,13.07-28.78,29.89-31.15h8.09ZM102.55,82.42l22.82.06,46.73.29c6.57.04,12.69-.32,19.01-1.76,1.27-8.57.54-21.01-2.4-29.06l-28.48-1.89c-5.94-.39-9.67-5.11-9.63-10.87.04-5.43-1.37-10.7-4.98-14.74s-9.3-5.42-14.66-4.51c-9.88,1.69-12.46,9.52-13.47,18.05-.88,7.49-6.45,12.69-13.89,12.97l-9.88.37c-4.32.16-8.51.29-12.77,1.01-1.74.29-2.97,1.49-3.45,3.19-2.04,7.12-3.06,19.11,1.02,25.71,8.06,1.04,15.7,1.15,24.04,1.17ZM21.67,313.13l.29,33.24c.02,2.73.87,5.46,2.23,7.75.91,1.53,2.66,2.57,4.29,3.29,9.4,4.12,23.96,3.57,34.27,3.42l25.82-.39,27.06-.39,30.07-.38,40.09-.38,41.04-.14c4.51-.02,8.57-.74,12.67-2.41,4.07-1.66,6.95-5.19,7.08-10.07l1.9-76.58,2.07-87.85,1.39-49.36c.35-12.4.72-24.3.11-36.61-.28-5.69-.92-11.04-2.7-16.29-1.29-3.82-4.08-6.25-8.03-7.11-3.19-.65-6.47-.95-9.86-.78-7.36.37-14.53.51-21.86.36.02,8.9-.69,17.94-8.71,23.31-7.55,5.01-21.58,4.99-30.71,4.94l-36.22-.22-40.44-.06c-6.3,0-12.28-.51-18.33-1.59-13.47-3.16-15.94-14.26-17.28-26.36l-21.94,1.69c-2.92.23-5.56,1.3-7.78,3.02-5.77,5.25-6.4,22.47-6.53,30.04l-.67,40.31-1.32,55.62.08,31.49,1.13,42.46.79,36.02Z"/>
  <path d="M137.79,305.34c-22.46-2.86-30.7,7.23-47.29,2.75-11.11-3-15.67-9.8-26.39-6.85-3.91,1.08-7.6,2.39-10.88,4.88-2.83,2.14-6.79,1.81-9.31-.49s-3.46-6.28-1.23-9.36c.98-1.36,2.59-2.59,4.09-3.48,6.84-4.07,14.38-6.48,22.41-6.8,5.64-.22,10.71,1.45,15.68,3.82,8.26,3.93,12.42,6.09,22.24,3.48,11.12-2.95,22.38-4.04,33.8-2.44,4.22.59,6.6,4.44,5.86,8.61s-4.81,6.42-8.96,5.89Z"/>
  <path d="M111.05,238.56c-7.07,1.98-14.26,2.35-21.14.42-6.08-1.71-14.25-7.33-19.93-7.29-6.28.04-12.08,2.46-17.17,5.81-2.57,1.69-5.81,1.52-8.17-.17-2.06-1.48-3.21-3.62-3.21-5.97s1.3-4.4,3.28-5.86c5.3-3.94,11.08-6.24,17.55-7.53,11.21-2.24,17.87.39,27.5,5.26,8.43,4.26,14.87,1.92,23.44-.14,9.26-2.23,18.87-2.64,28.21-.93,3.99.73,6.03,4.69,5.48,8.17s-4.01,6.6-7.9,6.15c-9.53-1.1-18.51-.57-27.93,2.07Z"/>
  <path d="M110.15,167.39c-9.38,2.72-18.61,1.78-27-2.56-2.96-1.53-5.82-2.82-8.91-3.84-6.4-2.1-15.78,1-21.03,4.85-2.7,1.98-6.06,1.84-8.75-.11-3.52-2.55-4.22-7.72-.85-10.66,5.66-4.93,12.47-7.45,19.79-8.74,16.35-2.88,23.3,5.61,31.54,7.39,8.08,1.74,15.37-1.93,22.62-2.97,7.86-1.12,15.76-1.23,23.58-.05,3.99.61,6.21,4.63,5.75,7.98-.53,3.92-4.25,6.82-8.31,6.33-9.73-1.16-18.88-.4-28.44,2.37Z"/>
  <path d="M217.54,307.56c-3.77,8.73-11.12,14.31-19.8,17.12-14.14,4.57-29-2.26-34.34-16.29-3.66-9.62-1.87-20.79,4.75-28.73,4.52-5.43,10.49-8.66,17.27-9.86,2.22-.39,4.1.71,6.04.76,9.38.23,18.05,3.71,23.31,11.74,4.89,7.46,6.44,16.78,2.78,25.26ZM189.66,318.09c6.95-.41,13.38-3.82,17.58-8.83,5.06-6.04,5.6-13.68,2.06-20.46s-10.75-10.94-18.45-9.6c-6.47,1.13-8.4,5.18-12.3,1.46-8.26,6-11.39,16.7-7.15,26.09,3.16,6.99,10.17,11.82,18.27,11.34Z"/>
  <path d="M219.49,230.38c-.48,14.8-13.67,25.42-27.85,27.22-8.69,1.11-16.76-2.24-22.72-8.62-5.65-6.06-8.09-14.12-7.17-22.47,1.41-12.7,10.83-23.02,23.48-25.06,2.37-.38,4.51.12,6.59,1.03,6.41-.07,12.65,1.49,17.64,5.62,6.58,5.45,10.31,13.68,10.03,22.29ZM189.61,249.84c10.22-.42,21.08-8.33,21.93-19.06.48-6.03-2.13-11.92-6.51-15.85-5.77-5.17-13.54-5.57-20.18-1.9-2.18,1.2-4.61,1.25-6.28-.85-6.37,4.82-9.78,11.99-8.91,19.91,1.11,10.14,9.36,18.18,19.96,17.75Z"/>
  <path d="M190.63,178.15c11.99-2.91,23.89-12.33,21.19-26.34-.45-2.34.96-4.26,2.92-4.69,2.24-.48,4.32.78,4.79,3.13,2.21,11.07-2.47,21.73-11.43,28.27-7.13,5.2-15.05,8.48-24.06,8.21-11.85-.35-21.92-7.98-25.98-19.04-3.84-10.45-2.69-21.92,4.04-31.02,7.79-10.53,21.96-15.78,34.94-12.09,2.3.65,3.36,3.09,2.63,5.09s-2.84,3.11-5.17,2.48c-8.76-2.37-18.57.87-24.56,7.38-5.63,6.13-7.1,14.45-5.32,22.38,2.68,11.96,13.95,19.18,26.01,16.26Z"/>
  <path d="M171.89,155.66c-2.35-2.51-2.84-6.03-.64-8.65,2.47-2.93,6.93-3.43,9.78-.69,2.16,2.08,4.08,4.3,6.22,6.72l6.36-7.94c5.13-6.41,10.22-12.46,15.8-18.51,3.81-4.13,7.74-7.97,12.39-11.12,3.06-2.07,7.38.09,8.71,2.7,1.94,3.81.48,7-2.46,9.36-8.32,6.68-21.74,22.83-28.47,31.62l-6.17,8.06c-2.17,2.83-6.23,4.03-9.22,1.85-2.29-1.66-4.09-3.88-5.87-6.06-2.06-2.52-4.09-4.85-6.41-7.33Z"/>
</svg>