<?xml version="1.0" encoding="UTF-8"?>
<svg id="Background" xmlns="http://www.w3.org/2000/svg" viewBox="0 0 140.87 518.36">
  <path d="M112.13,170.67c2.4,38.01,2.03,75.97-6.2,113.34-3.98,18.07-9.58,35.66-19.57,51.47-2.03,3.22-4.38,7-7.56,8.57-8.58,4.27-10.9,6.01-17.18-2.87-7.31-10.35-14.01-21.42-19.14-32.99-12.85-28.98-19.94-59.82-27.23-90.56C5.55,176.74-.79,135.38.08,93.31c.34-16.55,3.21-33.14,6.04-49.52,1.95-11.27,7.5-21.42,14.99-30.21,14.64-17.2,34.52-18.59,51.44-3.72,13.82,12.14,21.25,28.19,27.1,45.09,7.72,22.29,10.81,45.53,12.3,68.89.99,15.55.19,31.21.19,46.82ZM47.36,28.42c-3.43,5.35-6.65,8.87-8.14,13.01-3.1,8.61-6.04,17.41-7.73,26.38-6.84,36.35-3.77,72.71,1.06,108.99,6.11,45.85,18.91,90.05,33.32,133.83.67,2.04,1.84,3.92,3.85,8.11,2.4-8.16,4.56-13.76,5.68-19.56,4.68-24.36,7.9-48.92,9.02-73.73,1.99-44.09-2.13-87.74-9.56-131.13-3.13-18.24-7.94-35.99-17.57-52.03-2.65-4.41-5.99-8.41-9.93-13.86Z"/>
  <path d="M140.87,461.61c-1.48,5.98-2.75,15.98-6.43,24.99-11.42,27.97-41.6,41.56-70.19,31.76-24.57-8.42-41.16-25.78-50.94-49.53-4.13-10.04-4.78-20.64-1.18-31.22.67-1.96,1.54-4.24,1.14-6.11-1.92-8.9,1.83-16.17,6.79-22.69,11.39-14.94,24.73-27.26,44.35-30.5,12.47-2.06,24.13-.05,34.63,6.79,26.18,17.04,40.01,41.28,41.82,76.51ZM80.73,487.87c13.41.53,23-7.21,25.51-20.46,1.49-7.9.57-15.53-2.44-22.9-5.09-12.45-13.62-22.44-23.95-30.65-8.15-6.48-17.71-7.86-26.56-1.31-6.16,4.57-12.23,9.78-16.71,15.9-2.8,3.82-3.9,10-3.45,14.9,2,21.62,26.02,43.66,47.6,44.52Z"/>
</svg>