<?xml version="1.0" encoding="UTF-8"?>
<svg id="Background" xmlns="http://www.w3.org/2000/svg" viewBox="0 0 315.77 447.1">
  <path d="M315.77,319.35c.14-12.16-6.14-24.07-10.64-35.05-9.71-23.68-20.32-46.98-32.04-69.74-5.7-11.07-11.65-22.01-17.84-32.81-3.38-5.89-6.83-11.74-10.34-17.55-2.79-4.62-6.96-9.67-7.3-15.26-1.12-18.61-30.24-18.74-29.11,0,.8,13.22,7.28,23.25,13.9,34.32,6.67,11.17,13.09,22.5,19.24,33.97,12,22.38,23.03,45.31,32.9,68.71.1.24.19.47.29.71-20.29,7.55-40.26,15.97-59.78,25.32-3.53,1.69-7.12,3.4-10.71,5.13-15.53-43.92-34.02-86.77-55.39-128.17-8.6-16.65-33.73-1.94-25.14,14.69,20.73,40.14,38.6,81.56,53.53,124.19.33.94.74,1.8,1.18,2.6-7.87,4.51-15.46,9.42-22.39,15.05-.24-.47-.51-.94-.74-1.42-13.71-26.61-25.72-54.09-36.28-82.08-8.12-21.53-16.05-42.72-27.96-62.09,10.92-5.9,21.83-11.8,32.75-17.7,13.36-7.22,26.72-14.44,40.08-21.66,15.59,41.74,30.7,83.85,49.88,124.06,8.06,16.9,33.17,2.15,25.14-14.69-19.04-39.92-33.74-81.88-49.26-123.28,9-4.79,22.36-9.3,25.76-19.9,4.15-12.91-7.09-21.97-14.83-30.59-12.54-13.98-33.07,6.67-20.58,20.58.45.5.91,1,1.37,1.5-1.29.59-2.52,1.16-3.6,1.74-5.32,2.88-10.64,5.75-15.97,8.63-11.18,6.04-22.35,12.08-33.53,18.12-17.85,9.65-35.56,20.41-53.81,29.53-2.14-5.94-3.84-12.28-6.37-17.71-2.2-4.73-4.65-9.31-7.3-13.77,38.74-21.39,77.71-42.39,118.34-60.02,7.21-3.13,8.85-13.71,5.22-19.91-4.36-7.45-12.67-8.36-19.91-5.22-42.31,18.36-82.82,40.37-123.14,62.67-17.33-22.14-16.94-54.06,3.48-74.9,11.79-12.03,27.49-17.11,44.06-18.05,18.78-1.06,33.48,4.66,44.32,20.43,10.54,15.35,35.78.8,25.14-14.69C143.37,13.2,122.27.13,95.36,0c-25.35-.12-50.62,7.17-69.23,24.92-35.07,33.45-34.51,89.81-.3,123.6,1.64,1.62,3.4,2.73,5.19,3.41,5.07,7.6,9.6,15.55,13.23,23.94,4.15,9.59,5.3,23.44,14.59,29.6.78.52,1.57.95,2.35,1.33,17.55,23.05,25.42,52.28,36,78.8,5.62,14.09,11.58,28.05,17.91,41.84,3.38,7.38,6.87,14.71,10.47,21.98,3.14,6.34,5.98,13.88,10.94,19.1,4.85,5.11,12.17,7.16,18.48,9.72,6.49,2.64,12.99,5.25,19.45,7.99,13.44,5.7,26.71,11.86,39.39,19.11,23.74,13.57,44.05,36.82,71.98,41.53,8.26,1.39,19.57-3.73,18.43-14.04-2.85-25.62-2.23-51.53,2.98-76.81,2.44-11.88,8.43-24.52,8.57-36.68ZM282.21,335.13c-1.36,5.17-2.5,10.38-3.53,15.62-18.42.91-29.09,17.39-45.2,24.91-2.14,1-3.79,2.63-4.97,4.59-.95-.55-1.89-1.1-2.85-1.64-12.37-6.88-25.27-12.73-38.29-18.26-.54-.23-1.08-.44-1.61-.67,13.82-8.92,29.73-15.77,43.97-22.58,18.3-8.75,36.99-16.56,56.01-23.56.51,1.67.87,3.33.89,4.92.07,5.24-3.08,11.57-4.42,16.67Z"/>
</svg>