<?xml version="1.0" encoding="UTF-8"?>
<svg id="Background" xmlns="http://www.w3.org/2000/svg" viewBox="0 0 1094.28 665.55">
  <path d="M186.85,349.99c-19.73-45.48-24.58-90.82-15.16-137.25,6.36-31.36,20.45-58.99,46.66-78.87,5.57-4.23,11.89-7.94,18.43-10.32,19.87-7.22,38.23,3.32,43.19,23.87,3,12.44,1.65,24.78-.81,36.96-7.4,36.57-17.07,72.48-32.51,106.62-.42.92-.48,2-.86,3.67,1.24-.24,2.28-.13,2.88-.59,57-44.15,120.02-78,184.88-108.87,70.79-33.68,144.33-59.08,221.04-75.14,49.03-10.27,98.43-18.26,148.64-19.25,41.93-.82,83.73,1.33,125.2,8.18,7.35,1.21,14.74,2.18,22.09,3.36,7.7,1.24,14,4.99,18.7,11.21,6.23,8.24,5.2,17.88-2.57,24.74-5.88,5.18-12.8,7.62-20.6,6.95-12.72-1.1-25.42-2.45-38.13-3.67-30.42-2.94-60.85-1.98-93.97-.74,4.19,3.15,6.39,5.05,8.82,6.6,25.33,16.19,47.61,35.91,66.84,58.91,6.78,8.1,12.43,17.26,17.82,26.39,4.37,7.4,6.18,15.78,5.8,24.55-.62,14.5-8.94,24.84-22.98,28.19-9.91,2.36-19.77,1.96-29.43-1.1-46.12-14.63-87.45-37.27-120.11-73.68-15.59-17.39-30.14-35.71-46.62-55.33-76.97,14.74-154.77,34.98-229.68,66.4,11.84,1.4,23.84,2.03,35.49,4.37,17.69,3.55,35.44,7.35,52.58,12.87,9.88,3.19,19.47,8.88,27.67,15.37,15.98,12.63,16.15,30.74,1.69,45.16-8.29,8.26-18.58,12.88-29.7,15.84-23.41,6.24-46.64,3.35-69.37-2.89-30.56-8.39-59.58-20.78-86.65-37.41-6.01-3.69-11.57-8.13-18.04-12.72-.87.33-2.58.71-4.02,1.54-63.51,36.8-123.19,78.8-175.2,130.9-34.96,35.03-64.93,74.24-93.36,114.65-30.48,43.33-57.58,88.66-80.89,136.25-2.8,5.71-6.01,11.29-9.66,16.5-3.18,4.55-6.61,4.33-10.48.24-4.32-4.56-5.12-10.4-4.03-15.96,3.01-15.26,5.96-30.61,10.42-45.48,3.24-10.78,8.34-21.12,13.5-31.2,40.88-79.86,90.78-153.21,156.36-215.13,1.8-1.7,3.95-3.03,6.13-4.68ZM885.58,255.79c-2.05-5.3-3.3-10.51-5.94-14.88-4.02-6.65-8.59-13.07-13.65-18.96-25.84-30.06-57.46-52.23-92.97-69.71-16.05-7.9-30.97-5.88-47.69-2.03,22.48,34.07,48.47,63.17,83.07,83.72,17.15,10.18,35.06,18.71,54.61,23.24,6.78,1.57,13.76,3.83,22.58-1.38ZM199.58,323.35c1.54-2.89,2.71-4.55,3.38-6.39,14.76-40.63,29.73-81.18,44-121.98,3.23-9.25,4.47-19.3,5.68-29.1.66-5.35,2.33-12.64-3.5-15.61-5.58-2.84-10.6,2.35-15.12,5.6-14.65,10.51-23.61,25.4-30.34,41.6-12.54,30.18-15.28,61.75-11.68,93.98,1.17,10.43,2.57,20.91,7.59,31.91ZM410.36,250.06c.28.59.41,1.43.87,1.72,32.22,20.4,66.91,34.03,105.08,37.97,12.29,1.27,24.06-1.2,35.21-6.23,3.58-1.62,6.6-4.46,10.01-6.84-23.2-24.24-105.25-35.09-151.17-26.63Z"/>
  <path d="M643.62,25.55c-1.46,5.42-2.39,11.06-4.49,16.23-5.41,13.34-13.53,24.79-24.8,33.99-33.38,27.25-70.72,47.08-112.04,59.08-22.12,6.42-24.18-4.22-21.15-19.62,3.16-16.11,10.28-30.97,20.13-44.19,22.61-30.34,51.72-52.21,87.14-65.56,9.67-3.64,19.65-5.95,30.13-5.4,15.19.8,24.14,10.06,25.08,25.47ZM616.75,26.51c-42.61-2.35-103.58,53.81-113.04,85.15,2.29-.69,4.29-1.15,6.2-1.89,26.52-10.27,50.86-24.64,74.45-40.27,7.3-4.84,13.85-11.01,20.09-17.22,6.88-6.84,11.27-15.24,12.3-25.77Z"/>
  <path d="M996.31,91.99c-28.91.25-54.33-4.23-79.24-11.53-6.34-1.86-12.65-4.94-17.99-8.82-11.22-8.16-11.68-20.37-1.59-29.96,9.46-8.99,21.24-13.93,33.45-17.87,6.05-1.95,12.29-3.33,18.32-5.34,36.41-12.11,72.98-13.48,109.55-1.18,8.3,2.79,16.61,6.53,23.78,11.47,15.1,10.41,15.52,26.56,1.54,38.4-11.04,9.35-24.39,14.32-38.12,18.05-17.16,4.66-34.66,7.21-49.7,6.76ZM1070.72,49.54c-32.46-28.34-131.14-23.69-157.42,6.86,5.14,4.8,11.7,6.54,18.19,7.54,15.72,2.42,31.47,4.96,47.31,6.08,21.25,1.51,42.46.12,63.11-5.8,10.21-2.93,20.04-6.74,28.8-14.68Z"/>
  <g>
    <path d="M400.09,385.47c0,13.31-11.21,24.41-24.43,24.18-12.82-.22-23.65-10.97-23.93-23.77-.29-13.13,10.83-24.55,24.05-24.7,13.28-.15,24.31,10.87,24.31,24.29Z"/>
    <path d="M363.59,454.92c.29,9.3-7.13,16.95-16.54,17.06-9.44.11-17.05-7.31-17.03-16.59.02-8.82,7.16-16.22,16.03-16.64,9.25-.43,17.26,6.95,17.54,16.17Z"/>
    <path d="M427.37,443.64c-4.14,3.25-6.37,6.15-9.17,6.9-3.95,1.05-6.68-1.7-7.34-5.76-.66-4.05,2.85-8.26,6.84-7.39,2.87.63,5.28,3.3,9.67,6.24Z"/>
  </g>
</svg>