<?xml version="1.0" encoding="UTF-8"?>
<svg id="Background" xmlns="http://www.w3.org/2000/svg" viewBox="0 0 215.18 554.83">
  <path d="M100.99,277.57c-8.96,3.64-16.43,6.78-23.98,9.7-14.87,5.75-29.76,11.47-44.73,16.96-3.96,1.46-8.18,2.5-12.37,2.98-11.43,1.33-19.55-5.32-19.9-16.77-.21-6.68.45-13.5,1.62-20.1,6.12-34.57,12.37-69.13,18.91-103.62,5.15-27.18,10.66-54.29,16.29-81.37,1.22-5.85,3.32-11.58,5.6-17.12,1.63-3.95,4.38-8.09,9.52-6.31,4.71,1.63,3.81,6.24,3.26,10.12-5.07,35.82-9.92,71.67-15.36,107.43-4.75,31.21-10.19,62.31-15.25,93.47-.33,2.01-.04,4.13-.04,7.5,11.15-4.23,21.72-8.05,32.14-12.24,13.82-5.55,27.5-11.44,41.29-17.07,2.94-1.2,6.01-2.31,9.13-2.77,10.92-1.6,19.1,4.58,19.61,15.64.34,7.37-.3,14.94-1.69,22.2-10.36,54.35-21.02,108.65-31.57,162.97-.66,3.42-1.13,6.88-2.04,12.54,2.39-2.62,3.51-3.41,4.03-4.49,28.62-59.44,58.52-118.31,81.09-180.45,4.47-12.32,9.33-24.65,12.15-37.39,4.33-19.59,3.43-25.04-20.41-21.9-10.88,1.43-21.61,4.02-32.41,6.02-2.78.52-5.6,1.05-8.42,1.15-13.07.48-20.03-6.47-18.88-19.62.52-5.93,2.14-11.87,4.01-17.56,15.58-47.54,32.62-94.54,53.08-140.24,3.18-7.1,6.03-14.34,9.69-23.09-4,.83-6.64,1.14-9.14,1.93-23.66,7.44-47.25,15.12-70.98,22.35-7.77,2.37-15.88,3.68-23.86,5.31-2.06.42-4.26.49-6.35.27-4.5-.49-8.33-2.35-9.63-7.08-1.41-5.13.62-9.62,5.17-11.6,7.43-3.23,15.12-6.35,23.02-7.9,23.42-4.6,45.88-12.16,68.28-20.13,8.33-2.97,16.88-5.57,25.54-7.27,15.11-2.98,24.77,6.3,21.24,21.34-2.48,10.57-7.49,20.58-11.76,30.68-13.4,31.68-27.32,63.14-40.32,94.98-5.75,14.09-9.82,28.86-14.56,43.36-.98,2.99-1.52,6.11-2.66,10.83,10.07-1.74,18.96-3.27,27.84-4.82,4.89-.85,9.76-2.27,14.67-2.47,6.67-.27,13.55-.5,20.04.79,15.54,3.08,24.08,13.7,23.3,29.56-.41,8.38-2.06,17.02-4.92,24.9-7.37,20.32-14.86,40.69-23.87,60.32-20.71,45.14-42.66,89.7-63.48,134.78-13.83,29.94-26.53,60.4-39.85,90.58-2.28,5.17-4.79,10.31-7.79,15.08-2.65,4.21-6.98,6.06-12.01,4.94-5.48-1.22-8.81-5.06-9.2-10.41-.38-5.24-.09-10.68.89-15.84,12.58-66.56,25.36-133.09,38.03-199.64,2.45-12.89,4.75-25.81,6.94-38.75.63-3.69.65-7.49,1.06-12.62Z"/>
</svg>