<?xml version="1.0" encoding="UTF-8"?>
<svg id="Background" xmlns="http://www.w3.org/2000/svg" viewBox="0 0 403.56 379.65">
  <path d="M139.41,296.15c-14.31,2.23-26.79,5.18-39.4,5.94-33.18,1.98-62.01-8.12-82.13-35.64-19.73-27-23.69-57.31-9.06-87.47,14.46-29.8,39.91-45.16,73.49-46.02,2.71-.07,5.42-.26,9.12-.45-1.74-3.64-3.05-6.45-4.41-9.23-14.88-30.48-11.37-59.77,8.68-86.06C114.9,12.03,142.09.35,173.58,0c21.79-.24,37.92,10.14,47.94,29.63,2.1,4.08,4,8.26,7.34,15.2,2.77-4.01,4.33-7.4,6.86-9.75,25.13-23.42,54.24-32.94,88.05-23.65,7.05,1.94,13.91,5.41,20.13,9.33,15.72,9.91,23.07,24.69,22.24,43.18-1.06,23.73-8.38,45.19-24.34,63.26-1.13,1.28-2.14,2.67-3.95,4.95,5.21,1.07,9.53,1.92,13.83,2.85,32.11,6.98,48.23,30.12,51.43,57.69,3.36,28.98-12.53,54.77-39.49,66.5-14.98,6.52-30.43,9.26-46.71,6.56-3.78-.63-7.65-.72-12.61-1.16.84,4.83,1.49,8.84,2.24,12.82,7.96,42.24-11.32,77.28-51.34,92.55-20.45,7.8-41.53,12.13-63.54,8.2-20.18-3.61-35.21-14.13-43.96-33.1-4.81-10.44-7.91-21.25-8.28-32.76-.17-5.28-.03-10.58-.03-16.16ZM162.9,295.96c-.44.09-.89.17-1.33.26,1.75,10.4,2.64,21.05,5.45,31.16,4.75,17.1,17.15,26.27,35.06,27.38,16.9,1.05,33.32-1.75,48.97-7.99,26.72-10.65,40.34-36.52,33.64-64.56-2.19-9.17-6.34-17.93-10.08-26.67-4.88-11.39.31-20.54,12.59-20.2,7.71.21,15.43,1.91,23.04,3.47,15.08,3.09,29.56,2.06,43.52-4.84,16.66-8.23,25.02-21.06,23.55-38-1.58-18.13-9.96-31.91-28.06-37.49-8-2.46-16.63-2.98-25.02-4.1-6.29-.84-11.6,1.16-16.52,5.48-3.64,3.2-8.16,5.61-12.65,7.55-4.73,2.05-8.96.53-12.08-3.85-3.21-4.51-2.83-9.14.94-12.51,4.68-4.19,10.13-7.57,15.46-10.96,2.95-1.88,6.89-2.45,9.43-4.69,18.55-16.35,32.48-35.63,36.32-60.77,3.43-22.42-9.2-39.8-31.71-43.83-3.81-.68-7.78-.92-11.65-.74-18.65.87-34.09,9.49-47.51,21.54-12.51,11.23-23.61,23.53-23.15,42.39.19,7.64-5.47,12.46-11.89,12.49-6.78.03-11.51-5.23-12.07-13.46-.63-9.19-.73-18.46-2.03-27.56-1.15-7.99-2.72-16.17-5.75-23.59-6.8-16.64-17.97-22.2-35.78-18.62-21,4.22-38.04,15.15-51.28,31.92-12.63,15.99-14.56,33.8-6.46,52.07,6.9,15.54,15.06,30.53,28.72,41.66,5.66,4.61,6.8,10.85,3.88,16.07-3.09,5.52-9.53,7.43-16.73,4.71-2.97-1.12-5.68-2.93-8.66-4.05-7.61-2.87-15.12-6.25-22.98-8.15-23.27-5.62-45.1,3.98-57.37,24.54-12.48,20.92-8.69,49.1,8.56,69.19,26.33,30.65,74.93,36.63,101.58,18.64,9.35-6.31,18.49-1.13,19.94,10.18.67,5.23.11,10.62.11,15.94Z"/>
  <path d="M185.08,182.85c.99-20.96,13.95-37.83,32.37-41.55,9.65-1.94,17.6.48,23.58,8.3,9,11.77,12.99,25.2,11.12,39.89-2.13,16.72-18.22,31.02-34.99,31.89-11.66.61-22.59-5.82-26.84-17.05-2.59-6.84-3.55-14.3-5.24-21.48ZM206.09,182.79c.22,1.34.51,3.81,1.07,6.21,2.67,11.51,10.01,14.12,19.41,7.04,10.2-7.68,9.51-18.41,2.33-31.48-2.51-4.57-6.28-5.11-10.89-3.53-7.26,2.49-11.73,10.11-11.92,21.76Z"/>
</svg>