<?xml version="1.0" encoding="UTF-8"?>
<svg id="Background" xmlns="http://www.w3.org/2000/svg" viewBox="0 0 298.66 299.55">
  <path d="M107.34,168.8c-27.76,5.34-51.96,10.09-76.2,14.57-5.42,1-11.05,1.78-16.52,1.44-11.53-.71-17.72-9.31-13.06-19.95,3.3-7.55,8.99-14.64,15.18-20.21,14.18-12.78,31.77-19.26,50.14-23.62,2.43-.58,4.93-.84,9.52-1.59-3.18-4.46-5.47-7.99-8.07-11.27-8.57-10.79-15.82-22.32-18.25-36.11-4.56-25.92,5.09-46.77,24.64-63.06,17.43-14.53,38.27-11.38,48.4,8.89,8.94,17.88,14.3,37.57,20.97,56.56,2.1,5.98,3.29,12.28,5.64,21.26,4.08-6.67,6.62-10.72,9.06-14.84,14.06-23.68,30.83-45.15,53.6-60.97,7.64-5.3,16.81-9.59,25.86-11.36,13.03-2.55,21.45,6.48,19.66,19.74-.86,6.36-2.8,13.13-6.18,18.5-8.83,14.05-18.42,27.66-28.31,40.99-5.61,7.55-12.42,14.2-19.33,21.96,15.65-2.79,29.78-6.53,44.1-7.45,10.29-.66,21.41.77,31.12,4.2,22.25,7.87,26.02,31.68,7.61,46.5-6.06,4.88-14.1,7.54-21.58,10.32-6.02,2.23-12.55,3.11-20.52,4.97,3.02,3.68,5.6,6.39,7.68,9.43,6.23,9.1,14.02,17.63,18.03,27.66,10.96,27.4-5.97,50.53-35.41,49.3-27.21-1.14-47.88-14.75-63.19-36.48-6.62-9.4-11.45-20.06-17.93-31.63-2.53,5.21-4.54,9.62-6.77,13.9-13.07,25.05-26.09,50.12-39.36,75.05-2.83,5.32-6.35,10.35-10.11,15.07-4.91,6.15-10.96,11.13-19.52,8.03-7.58-2.75-10.59-9.41-10.43-16.91.28-13.06,0-26.35,2.36-39.11,4.29-23.19,15.78-43.49,29.16-62.69,1.98-2.85,4.06-5.63,8.01-11.09ZM131.84,124.42c-2.93-10.38-5.86-20.4-8.57-30.47-2.75-10.22-4.86-20.62-8.02-30.7-3.15-10.07-6.59-20.16-11.12-29.66-5.65-11.86-11-12.39-20.8-3.52-13.79,12.49-17.86,32.42-8.47,49.82,12.23,22.67,28.4,41.22,56.97,44.53ZM173.16,165.66c3.43,9.39,5.22,16.74,8.64,23.22,10.8,20.45,28.47,32.27,50.72,36.95,4.22.89,11.16-.68,13.34-3.67,2.09-2.87.6-9.45-1.11-13.68-1.82-4.51-5.52-8.36-8.77-12.18-15.59-18.33-36.99-25.06-62.83-30.64ZM165.75,118.72c10.32-9.68,19.75-17.81,28.34-26.75,15.38-16.01,30.7-32.19,40.34-52.62,1.49-3.15,1.99-6.77,3.29-11.4-29.95,10.96-67.32,58.12-71.98,90.77ZM276.74,131.56c-21.06-8.99-62.05-1.05-79.35,14.14,27.67,3.52,53.6,4.13,79.35-14.14ZM41.55,157.06c19.81-3.39,39.62-6.74,59.41-10.22,2.23-.39,4.34-1.53,6.5-2.33-23.62-3.72-45.82-1.22-65.91,12.55ZM96.43,245.94c7.21-13.37,13.02-23.78,18.46-34.39,4.02-7.83,7.55-15.91,11.29-23.87-14.02,11.65-27.35,38.2-29.76,58.26Z"/>
</svg>