<?xml version="1.0" encoding="UTF-8"?>
<svg id="Background" xmlns="http://www.w3.org/2000/svg" viewBox="0 0 213.88 357.98">
  <path d="M189.03,172.23c-8.59,0-13.68,6.71-14.56,14.56-3.48,31.3-6.97,62.6-10.45,93.9-.85,7.68-1.71,15.36-2.56,23.03-.74,6.67-.56,14.5-2.83,20.87-3.4,9.55-21.56,6.48-29.64,6.52-15.98.09-31.96-.44-47.9-1.59-7.08-.51-14.16-1.14-21.22-1.89-5.56-.59-12.95-.43-18.19-2.87-3.13-1.46-2.37-5.02-2.9-10.14-.85-8.2-1.57-16.41-2.18-24.64-1.13-15.27-1.87-30.57-2.32-45.88-.91-30.97-.79-62.01.07-92.99.82-29.59,2.98-59.39,12.21-87.71,3.47-10.65,8.54-22.87,19.6-27.52,11-4.62,23.76-1.83,34.36,2.53,6.45,2.66,12.55,6.17,18.58,9.66,2.31,1.33,6.01,2.69,7.83,4.64.27.29.8.97.87.86.3,1.45-.14,3.8-.17,5.08-.35,15.66-1.2,31.33-1.8,46.98-1.35,35.3-1.57,70.86-4.37,106.08-.59,7.41-1.5,14.76-3.11,22.02-1.1,4.92-2.54,16.76-7.03,20.05-3.67,2.68-13.01.15-17.36-.46-5.81-.81-11.58-1.94-17.3-3.24-1.72-21.82-1.97-43.68-.71-65.57,1.07-18.72-28.04-18.65-29.11,0-1.48,25.79-.89,51.56,1.76,77.26.66,6.4,4.06,12.3,10.69,14.04,16.82,4.41,37,9.75,54.46,7.52,18.66-2.38,26.58-19.23,31.11-35.54,9.69-34.93,7.48-73.71,8.85-109.63.76-19.88,1.52-39.75,2.28-59.63.68-17.88,4.33-37.62-12.24-49.51C117.73,10.4,79.94-5.09,49.41,11.79,19.25,28.46,12.65,71.41,8.67,102.24c-4.77,36.91-4.31,74.68-4.04,111.83.27,37.57.2,76.81,6.61,113.94,2.69,15.56,15.24,24.05,30.08,26.45,18.93,3.06,38.33,4.37,57.48,5.2,19.67.85,42.42,3.25,61.71-1.68,19.84-5.07,26.29-21.54,28.48-40.08,5.17-43.67,9.73-87.41,14.59-131.11.87-7.82-7.31-14.56-14.56-14.56Z"/>
  <path d="M205.38,120.32c-.59-1.8-1.59-3.37-3.01-4.68-1.32-1.42-2.88-2.42-4.68-3.01-1.73-.91-3.6-1.33-5.61-1.25-1.29.17-2.58.35-3.87.52-2.47.69-4.61,1.94-6.42,3.74-.76.98-1.52,1.96-2.28,2.95-1.32,2.27-1.98,4.72-1.99,7.35v1.09c-.08,2,.34,3.87,1.25,5.61.59,1.8,1.59,3.37,3.01,4.68,1.32,1.42,2.88,2.42,4.68,3.01,1.73.91,3.6,1.33,5.61,1.25,1.29-.17,2.58-.35,3.87-.52,2.47-.69,4.61-1.94,6.42-3.74.76-.98,1.52-1.96,2.28-2.95,1.32-2.27,1.98-4.72,1.99-7.35v-1.09c.08-2-.34-3.87-1.25-5.61Z"/>
  <path d="M195.33,70.11c-18.73,0-18.76,29.11,0,29.11s18.76-29.11,0-29.11Z"/>
</svg>