<?xml version="1.0" encoding="UTF-8"?>
<svg id="Background" xmlns="http://www.w3.org/2000/svg" viewBox="0 0 394.72 377.01">
  <path d="M206.61.4c1.04.65,2.42.69,3.86.78,8.67.52,16.85,1.83,25.41,3.45,22.75,4.31,44.59,12.02,64.61,23.64,20.19,11.72,37.07,25.78,51.89,43.77,7.52,9.12,14.16,18.66,19.76,29.08,4.21,7.83,7.96,15.42,11.06,23.76,5.68,15.24,9.4,30.83,11.18,47,.09.83.08,1.63.33,1.99v39.32c-.12.11-.3.73-.33,1.13-.46,6.84-1.4,13.32-3.27,19.79-2.51,8.67-8.51,14.91-17.36,17.21-7.86,2.04-15.89,2.91-24.13,2.93l-14.44.04-33.75.94-39.06,1.3-10.83.41-12.4.38-10.72.41-13.18.38-9.58.39-14.31.38-9.19.38-11.57.41-10.67.24-46.99.82-48.76-.67-15.02-.82c-8.36-.46-16.51-1.07-24.69-2.57-9.25-1.7-16.77-7.2-20.46-15.87-2.87-6.76-2.62-10.56-4.02-16.79v-32.77c3.56-32.5,8.35-59.29,22.81-89.39,8.52-17.75,19.92-34.24,33.68-48.42C87.74,21.17,130.07,4.13,174.54,1.15c1.92-.13,3.59-.42,5.09-.75h26.98ZM233.87,93.48c4.7,2.94,5.56,8.38,3.8,13.09-6.32,16.89-10.1,16.59-18.84,31.36,3.48.43,6.43.66,9.48,1.47,4.98,1.31,8.72,4.96,9.69,10.05,1.35,7.11-1.35,12.59-4.08,18.96l-8.35,12.48-13.06,19.24c11.15,7.84,16.92,20.36,16.44,33.9l104.8-3.9,14.04-.54c6.78-.26,13.23-.74,20.03-1.59,2.63-8.11,3.62-26.86,3.52-35.26-.17-13.74-1.72-27.07-4.79-40.45-2.62-11.44-6.68-22.03-11.77-32.59s-11.98-21.24-19.71-30.73c-16.22-19.92-36.36-35.76-59.5-46.92-27.76-13.39-57.22-19.28-87.99-18.74-33.26.58-63.25,8.83-90.99,27.37-27.23,18.2-46.91,44.46-58.51,74.95-7.04,18.49-11.41,37.52-13.26,57.15-1.65,16.59-2.9,34.13,1.82,50.52,17.65,2.14,35.1,2.98,52.8,3.2l19.28.23,38.63-.27,15.37-.23c-2.7-10.61,2-23.71,9.04-31.58,7.18-8.02,16.95-12.31,27.75-11.98,3.65-6.28,7.55-12.07,11.64-18.01l8.95-13.01c-4.6-.84-8.85-.34-13.11-2.53-5.73-2.96-8.42-9.39-6.92-15.71,2.01-8.43,8.19-17.02,13.31-24.02l16.75-22.9c3.18-4.35,9.13-5.87,13.73-3ZM177.43,235.7l28.39-.94c.41-9.83-6.1-18.49-16-19.01-4.61-.24-9.33,1.76-12.58,5.05-2.79,2.83-4.23,6.5-5.78,10.03l-2.2,5.01,8.16-.14Z"/>
  <path d="M129.13,377.01h-29.3l-7.65-.55-3.93-.21-22.33-1.45-21.39-1.77c-7.98-.66-15.27-4.98-19.26-12.03-4.32-7.62-5.03-19.62-4.85-28.35.19-9.3,1.71-18.24,3.27-27.3.59-3.43,3.05-5.35,4.26-8,1.62-3.56,2.5-6.44,6.97-7.45,8.88-2,17.86-3.71,27.13-4.37l24.22-1.72c12.96-.92,25.6-1.86,38.61-1.85h11.95c10.73,0,29.92.92,37.5,9.37,2.44,2.72,4.1,6.03,5.03,9.65,3.17,12.3,6.16,31.29,5.14,43.88-.84,10.41-5.34,20.77-15.58,24.91-12.26,4.96-22.02,5.63-34.91,6.69-1.74.14-3.41.14-4.87.55ZM160.01,346c1.3-11.87-1.01-26.49-3.93-38.08-4.92-1.48-9.72-1.85-14.87-2.05-9.39-.37-18.62-.28-28.01.04l-10.83.36-12.44.41-28.27.83c-6.5.19-12.8-1.01-19.2-1.81.89,5.22,1.26,10.35,1.35,15.56l.25,14.02c.34,4.77.85,9.09,1.98,13.85,1.68.32,3.12.57,4.75.69l18.65,1.44c26.06,2.01,63.04,4.53,88.17-2.42,1.24-.34,2.23-1.31,2.4-2.85Z"/>
  <path d="M372.33,362.03c-9.32,14.2-58.6,14.47-73.61,13.45l-50.44-3.43c-12.79-.87-22.08-6.93-25.27-19.61-2.96-11.74-2.31-23.47-.91-35.47.54-4.65,1.33-9.11,2.44-13.65.72-2.92,2.25-5.18,4.69-7.03-.34-3.79,2.01-6.61,5.66-7.54,8.8-2.24,17.55-3.77,26.71-4.43l35.58-2.58,25.07-1.04c7.38-.31,14.48-.07,21.79.49,6.02.46,11.89,1.58,17.36,3.81,6.29,2.57,10.31,7.27,12.17,13.75,3.05,10.58,4.44,21.29,5.35,32.36.61,7.43.39,14.62-1.74,21.7-.69-.57-1.64-1.08-1.98-.85-.3,5.97-.9,3.23-2.48,6.18l.89,1.05c.21.25-.22,1.09-.51,1.25l-.83.44c-.2.11.02.82.06,1.15ZM350.77,306.56c-8.45-2.55-23.74-2.37-32.74-2.1l-21.04.65-9.58.39-11.96.4c-11.33.38-21.24.45-32.6-1.65.59,3.21,1.25,6.48,1.35,9.76l.44,14.97c.17,5.99.43,11.69,1.7,17.57.26,1.19,1.31,1.68,2.52,1.78l28.94,2.27c14.33,1.12,28.37,1.59,42.75,1.19,10.52-.29,20.57-1.53,30.78-3.93.76-.18,2.08-.83,2.69-1.33,2.76-9.46-.62-30.07-3.23-39.97Z"/>
  <path d="M221.8,72.53c-9.65-2.01-18.71-3.15-28.32-2.91-22.67.56-43.6,5.52-63.2,17.09-10.05,5.93-19.12,12.98-27.05,21.52-25.21,27.13-38.25,64.72-42.33,101.03-.44,3.9-5.27,6.05-8.34,5.62-4.25-.59-6.75-3.88-6.96-8.05-.65-12.89.51-25.41,3.26-38.12,4.55-21.08,13.48-42.49,25.62-60.33,12.2-17.93,28.41-33.3,47.22-44.17,19.91-11.5,44.9-18.61,67.94-18.52l5.84.02c30.22.12,60.28,9.72,85.41,26.59,17.27,11.6,31.9,26.7,43.24,44.22,14.99,23.16,24.4,51.81,26.3,79.21.47,6.75-4.26,12.14-10.49,13-5.92.82-12.45-3.09-13.3-9.55-1.37-10.42-3.24-20.32-6.2-30.4-3-10.22-6.32-19.91-11.18-29.39-8.56-16.73-19.74-30.48-34.5-42.05-15.83-12.41-32.97-20.64-52.95-24.81Z"/>
</svg>