<?xml version="1.0" encoding="UTF-8"?>
<svg id="Background" xmlns="http://www.w3.org/2000/svg" viewBox="0 0 313.73 292.47">
  <path d="M311.62,102.97c-23.64-32.59-50.97-61.99-82.11-87.49-1.8-5.17-6.13-9.51-13.01-10.08C169.93,1.58,123.23-.22,76.5,0c-8.23.04-12.84,5.68-13.85,11.98C43.44,32.15,23.95,52.04,4.16,71.64c-5.68,5.62-5.42,14.91,0,20.58,52.34,54.73,94.28,119.26,122.42,189.62,4.15,10.38,20.58,15.94,26.6,3.48,15.89-32.86,35.9-63.6,60.13-90.92,11.85-13.36,24.57-25.94,38.07-37.62,13.63-11.79,28.73-25.77,46.68-29.98,2.36-.55,4.27-1.51,5.8-2.74.85-.3,1.7-.68,2.53-1.17,6.27-3.67,9.86-13.52,5.22-19.91ZM77.61,38.41c3.92,10.68,8.34,21.16,13.22,31.43-14.08-.82-28.18-1.35-42.28-1.58,9.75-9.88,19.44-19.84,29.06-29.85ZM47.96,97.36c19.11.3,38.18,1.18,57.19,2.6,3.27,31.32,6.84,62.6,10.69,93.86-19.55-34.16-42.23-66.46-67.88-96.45ZM126.44,72.59c-1.39-1.05-2.99-1.84-4.78-2.3.02-2.23-.48-4.58-1.7-6.98-5.61-11.09-10.49-22.42-14.75-34.05,31.4.41,62.78,1.76,94.11,3.99-.04.1-.09.2-.13.31-5.72,14.73-13.83,30.13-15.96,45.98-18.86-2.85-37.8-5.17-56.8-6.96ZM170.66,107.07c-11.13,26.71-19.88,54.11-26.28,82.16-3.53-28.86-6.82-57.74-9.84-86.65,12.07,1.27,24.11,2.78,36.12,4.49ZM237.61,130.43c-15.28,12.64-29.63,26.42-42.9,41.17-8.16,9.07-15.92,18.49-23.27,28.22,6.58-30.23,16.22-59.83,28.66-88.09,16.26,2.83,32.45,6.04,48.56,9.7-3.75,2.97-7.43,6-11.05,9ZM211.83,84.28c.03-.29.08-.57.1-.86.47-6.77,4.39-13.91,6.82-20.18,1.83-4.71,3.65-9.42,5.48-14.12,16.4,14.66,31.73,30.49,45.77,47.43-19.27-4.67-38.67-8.74-58.17-12.27Z"/>
</svg>