<?xml version="1.0" encoding="UTF-8"?>
<svg id="Background" xmlns="http://www.w3.org/2000/svg" viewBox="0 0 365.43 394.72">
  <path d="M193.12,0c10.69,2.45,14.1,7.89,16.22,18.4l4.55,22.48c2.8,1.28,5.46,2.04,8.45,2.71,7.73,1.72,15.1,3.7,22.4,7.12,3.39-2.13,6.02-4.66,8.36-7.66s5-5.92,7.92-8.72c4.32-4.14,9.93-7.29,16.1-7.2,10.25.15,19.52,9.37,26.75,15.53l11.04,9.4c3.07,2.61,5.7,5.66,7.15,9.49,2.68,7.12-2.71,17-6.83,22.78-3.3,4.63-6.17,9.25-8.76,14.29-.8,1.55-.88,2.69.21,4.12,6.4,8.41,8.16,15.47,13.06,24.64.67,1.26,2.23,1.89,3.65,1.8l15.46-.98c8.34-.53,17.51-.07,21.51,8.68,2.82,6.18,4.11,12.78,4.73,19.62.04.45.21,1.04.34,1.15v39.41c-3.62,4.02-7.87,7.08-13.25,8.69l-9.15,2.73c-3.94,1.18-7.58,2.51-11.49,4.61-.2,12.21-2.9,23.8-7.9,35.13,1.01,1.09,2,2.08,3.12,2.88l12.06,8.65c3.79,2.72,7.4,5.47,10.23,9.1,8.34,10.67,2.4,20.78-4.3,30.03l-10,13.81-8.12,12.35c-6.29,9.57-14.49,16.03-26.49,11.6-10-3.7-16.77-11.09-26.74-15.62-2.85,1.81-5.31,3.84-8.02,6.09-8.28,6.86-17.39,11.99-27.45,16.12-.67,4.17-.98,8.2-1.01,12.39l-.12,13.27c-.03,3.86-.6,7.73-1.97,11.3s-4.49,6.29-8.01,8.06c-4.62,2.31-9.54,3.02-14.73,3.54l-24.72,2.5c-.9.09-1.84.14-2.33.41h-10.02c.09-.05-.57-.37-1.06-.39-6.4-.18-12.78-5.01-14.25-11.78-.58-2.68-1.3-5.11-1.78-7.8l-3.03-16.98c-.32-1.77-1.01-3.54-1.66-5.23-5.41-1.27-10.42-2.4-15.71-4.02-6.45-1.98-12.21-4.92-18.4-7.93-5.99,4.28-10.97,9.33-15.88,14.7-3.02,3.3-6.02,6.29-9.66,8.78-12.18,7.6-20.28-.17-28.35-8.38l-15.5-15.76c-6.23-6.33-13.86-14.04-11.87-23.75.83-4.06,2.91-7.63,5.36-10.89l6.61-8.82c3.31-4.41,6.48-8.79,8.63-13.79-3.19-6.37-6.51-12.25-8.91-18.82s-4.26-12.26-7.1-18.4c-10.37-3.28-20.09-3.4-30.9-6.08-5.97-1.48-9.75-6.9-10.85-12.61-.16-.83-.43-1.57-.69-2.06v-52.04c1.21-1.78,2.11-3.93,3.87-5.42,3.34-2.83,7.39-4.64,11.78-5.12l14.96-1.64c2.96-.32,5.76-.89,8.8-1.7,1.64-8.42,4.18-16.23,7.25-24.23,1.35-3.51,2.44-6.78,3.43-10.46-4.36-9.35-10.51-14.37-16.14-23.16-1.79-2.8-2.84-6.05-3.39-9.31-1.41-8.5,3.28-15.09,8.42-21.06l8.72-10.13,6.09-7.45c5.95-7.29,12.07-14.33,22.92-10.6,3.53,1.21,6.41,3.31,9.29,5.77,5.96,5.09,11.74,9.96,18.3,14.45,1.93.07,3.93-1.06,5.56-2.17,7.77-5.27,15.6-10.33,24.75-12.59,1.19-9.7,1.93-19.07,2.44-28.76.22-4.19,1.64-8.61,5.02-11.23s7.6-3.82,11.86-4.33l29.93-3.58h9.25ZM219.39,373.11c1.17-5.6,1.66-11.16,1.63-16.94l-.04-7.71c.18-9.08-.31-14.56,7.68-19.65,6.88-4.39,13.6-8.46,20.79-12.31,5.75-3.08,10.94-6.47,16.13-10.38,5.13-3.86,9.91-3.96,15.29-.32l11.31,7.63c4.03,2.72,8.12,4.82,12.6,6.67,1.49.61,2.74.78,4.12-.36,8.54-7.05,16.69-17.16,21.37-27.16l5.97-12.76c-5.9-6.16-12.34-11.21-19.53-15.68-2.28-1.42-4.39-3.03-6.42-4.68-4.12-3.36-5.71-8.62-3.99-13.59l3.48-10.03c1.88-5.42,3.14-10.87,3.97-16.55l1.58-10.72c.83-5.67,4.81-9.69,10.13-11.46l11-3.65c5.16-1.71,10.06-3.46,14.99-5.8.89-10.22-1.41-24.93-3.52-34.94-.54-2.56-1.44-4.89-2.2-7.41-4.13-1.43-16.35-.41-21.2.11-8.12.88-15.45.09-18.67-8.48-3.38-9-7.85-17.04-13.82-24.6-6.16-7.81-4.05-16.14,1.37-23.57,3.66-5.02,6.5-10.17,9.44-15.61l3.2-5.93c-5.13-7.54-12.04-12.99-19.77-17.76l-9.99-6.17c-3.07,1.91-5.6,4.15-8.07,6.78l-13.42,14.26c-5.32,5.66-13.26,4.56-19.73,1.25-7.9-4.04-15.97-6.89-24.9-7.49-5.7-.38-10.18-4.1-11.52-9.76-2.55-10.73-3.03-20.3-6.96-30.72-12.88-1.46-27.15,1.41-39.5,4-1.76,6.38-2.07,12.43-1.79,18.85l.3,6.96c.4,9.29-3.85,14.04-11.7,17.88-10.41,5.1-16.49,5.8-27.56,12.55-7.7,4.69-14.59,1.35-20.56-4.15-5.59-5.16-12.18-10.69-18.78-14.71-10.33,8.1-18.32,15.9-24.14,27.85-.83,1.71-.62,3.57.3,5.27,2.44,4.49,5.49,8.43,8.51,12.6l6.97,9.63c4.3,5.94,4.25,13.43.47,19.52-6.35,10.22-6.06,20.8-9.6,32.5-1.4,4.64-5.03,7.75-9.88,8.76-6.59,1.37-13.2,2.01-19.96,2.75-3.22.35-6.18.89-9.3,1.78-3.23,13.83-2.43,30.89,1.53,44.22,4.65,2.21,9.41,2.85,14.38,3.39,5.5.6,10.77,1.01,16.24,2.02,5.1.94,9.6,4.71,10.91,9.75,2.28,8.76,4.51,17.25,8.93,25.14l6.34,11.33c2.73,4.88,2.79,10.44-.12,15.33-3.09,5.2-6.89,9.8-10.59,14.63-2.47,3.23-6.67,9.88-8.71,13.58,5.74,9.54,12.29,15.02,20.27,22.23l9.36,8.46c4.05-2.84,7.67-5.41,11.05-8.76l13.73-13.61c3.95-3.91,10.08-5.41,15.15-3.05,5.85,2.71,11.19,5.72,17.3,7.79,5.73,1.94,11.44,3.11,17.36,4.23,10.47,1.99,11.24,10.74,12.37,19.98.63,5.16,1.82,9.99,3.17,14.98l1.66,6.17c13.22,1.78,30.4-.45,43.6-4.36Z"/>
  <path d="M211.51,260.38c-9.17,4.82-18.54,7.94-28.79,8.4-12.55.57-24.67-2.64-34.76-10.07-8.14-5.41-14.84-12.03-20.62-19.95-15.43-21.16-13.34-52.9-1.1-75.16,7.15-12.99,18-24,30.77-31.54s26.91-7.9,40.39-4.29c5.7,1.53,10.82,2.77,16.17,5.12,10.46,4.6,19.85,11.19,26.7,20.43,5.35,7.21,8.25,15.43,10.06,24.19,3.21,15.56,2.17,31.46-4.05,46.07-7.09,16.64-18.68,28.34-34.77,36.8ZM187.96,249.91c12.96.13,25.19-4.85,33.52-14.53,3.97-4.61,7.22-9.41,9.73-14.94,5.8-12.78,6.71-26.93,2.11-40.2-2.91-8.37-6.96-16.06-12.48-22.91-3.36-4.17-7.24-7.19-11.77-9.87-6.75-3.98-14.1-6.21-22.18-5.6-18.28,1.38-37.41,10.11-46.91,26.56-3.45,5.97-4.85,12.49-5.29,19.41-.75,11.87,2.21,23.29,6.75,34.2,2.44,5.88,5.03,11.39,9.49,15.93,3.6,3.66,7.57,6.33,12.46,7.98,7.93,2.68,15.84,3.87,24.56,3.95ZM240.52,173.47c-.87-4.75-2.81-9.73-6.51-13.04l6.51,13.04ZM132.56,222.91c-.91-3.92-2.12-7.66-3.69-11.43.14,4.12,1.48,7.82,3.69,11.43ZM175.84,258.11l-9.06-2.1c2.66,1.93,5.99,2.48,9.06,2.1Z"/>
</svg>