<?xml version="1.0" encoding="UTF-8"?>
<svg id="Background" xmlns="http://www.w3.org/2000/svg" viewBox="0 0 324.78 338">
  <path d="M219.5,105.75c-20.29,11.27-37.82,25.72-53.71,41.93-9.11-12.67-18.3-25.28-27.68-37.75-4.72-6.27-12.57-9.52-19.91-5.22-6.18,3.62-9.97,13.59-5.22,19.91,11.18,14.88,22.13,29.92,32.93,45.08-12.03,14.33-23.28,29.43-34.32,44.54-4.64,6.35-1.07,16.23,5.22,19.91,7.37,4.31,15.26,1.14,19.91-5.22,8.56-11.7,17.25-23.42,26.41-34.69,8.81,12.73,17.54,25.53,26.09,38.45,10.29,15.56,35.51.99,25.14-14.69-10.29-15.56-20.82-30.96-31.5-46.24,15.11-15.85,31.82-30,51.34-40.85,16.38-9.1,1.71-34.25-14.69-25.14Z"/>
  <path d="M315.87,83.63c-13.75-33.61-44.94-55.31-80.6-59.33-2.43-.27-4.75.33-6.79,1.5.87-5.16-.95-10.64-6.89-14-30.69-17.39-66.31-11.4-98.12-.4-28.03,9.7-57.28,21.26-79.52,41.48C17.65,76.78,10.89,112.02,4.59,145.45c-3.47,18.39-5.9,37.32-3.83,56.02,2.06,18.64,8.24,35.8,16.02,52.76,6.69,14.6,13.73,29.98,25.72,41.06,12.61,11.65,28.53,18.43,44.04,25.27,32.23,14.22,64.24,22.41,99.3,14.08,32.05-7.61,61.07-26.29,84.88-48.61,11.93-11.18,23.25-23.69,31.47-37.9,8.72-15.07,13.4-31.99,16.06-49.08,5.76-37.06,12.25-79.69-2.37-115.44ZM291.87,178.07c-3.23,28.68-10.05,53.88-29.99,75.56-18.18,19.77-40.38,37.26-65.52,47.23-26.35,10.45-52.56,10.58-79.17,1.03-25.22-9.05-53.23-19.47-66.43-44.19-14.59-27.31-23.88-54.49-20.9-85.77,1.48-15.49,5.15-30.78,8.62-45.92,3.15-13.78,6.48-27.64,14.44-39.55,14.66-21.93,41.88-33.25,65.58-42.33,27.06-10.37,60.95-22.74,88.39-7.2,5.12,2.9,10.09,2.41,13.98.09-.09.61-.15,1.22-.15,1.83,0,8.6,6.71,13.67,14.56,14.56,22.99,2.59,44.07,18.56,53.21,39.71,11.37,26.29,6.5,57.44,3.4,84.95Z"/>
</svg>