<?xml version="1.0" encoding="UTF-8"?>
<svg id="Background" xmlns="http://www.w3.org/2000/svg" viewBox="0 0 239.8 284.69">
  <path d="M156.41,111.03c1.76,9.49,3.34,18.08,5.05,27.29,2.94-.32,5.33-.37,7.63-.85,15.95-3.36,31.84-7.03,47.85-10.1,4.4-.85,9.14-.23,13.69.1,4.61.34,8.27,2.53,9.18,7.42.88,4.76-1.43,8.41-5.44,10.63-5.24,2.91-10.52,6.01-16.17,7.88-13.79,4.56-27.8,8.45-41.72,12.64-2.98.9-5.91,1.94-9.46,3.12,3.17,16.52,6.28,32.47,9.26,48.44,1.69,9.06,3.46,18.13,4.58,27.27.5,4.09.19,8.58-1,12.52-1.72,5.7-6.64,6.65-10.4,1.96-3.04-3.8-5.75-8.29-7.14-12.91-5.29-17.64-10.02-35.46-14.87-53.23-1.57-5.75-2.87-11.58-4.48-18.11-12.95,3.26-25.16,6.34-38.35,9.67.52,3.93.88,7.36,1.44,10.75,3.61,21.69,7.41,43.35,10.82,65.08.93,5.92,1.05,12.03.87,18.03-.06,2.06-2.19,4.06-3.37,6.08-2.24-1.33-5.49-2.13-6.51-4.1-2.92-5.63-5.62-11.55-7.17-17.68-5.22-20.62-9.9-41.38-14.78-62.09-.8-3.41-1.52-6.84-2.47-11.14-5.97,1.01-11.41,2.16-16.92,2.81-17.59,2.09-35.18,4.23-52.82,5.8-4.92.44-12.05,1.9-13.5-5.05-1.55-7.41,5.77-9.15,10.79-10.92,14.37-5.05,28.96-9.48,43.51-14,7.71-2.39,15.52-4.46,23.88-6.85-1.94-11.93-3.74-23.03-5.69-35.07-6.39.8-12.22,1.88-18.08,2.19-12.73.66-25.48.96-38.23,1.3-1.74.05-3.56-.3-5.23-.81-3.79-1.16-7.82-2.55-8.11-7.27-.32-5.16,3.93-6.02,7.77-7.07,15.03-4.14,30.04-8.34,45.06-12.5,4.04-1.12,8.09-2.2,12.78-3.47-1.83-14.95-3.75-29.3-5.31-43.68-1.41-13.03-2.47-26.1-3.54-39.16-.2-2.44-.39-5.3.66-7.33,1.32-2.56,3.64-5.78,6.04-6.29,2.44-.52,6.96,1.13,8.04,3.17,3.09,5.84,6.02,12.2,6.98,18.65,2.7,18.24,4.33,36.64,6.49,54.96.53,4.51,1.47,8.98,2.38,14.36,12-2.77,23.19-5.34,35-8.06-2.34-14.18-4.86-27.36-6.59-40.65-1.51-11.58-2.16-23.27-3.09-34.91-.17-2.1-.03-4.29.35-6.36.91-4.91,3.45-8.71,8.71-9.47,4.79-.69,8.5,1.84,10.29,6,2.65,6.15,5.37,12.47,6.62,18.99,3.13,16.35,5.43,32.85,8.1,49.29.56,3.42,1.29,6.82,2.15,11.25,10.72-2.05,20.69-4.06,30.69-5.82,9.42-1.66,18.85-3.44,28.35-4.43,4.82-.5,9.95-.02,14.67,1.11,8.34,2,10.94,9.98,4.87,16.19-4.05,4.14-9.45,7.87-14.93,9.51-15.93,4.77-32.21,8.41-48.36,12.46-3.33.84-6.7,1.54-10.83,2.48ZM130.99,115.43c-12.98,2.47-24.59,4.68-36.62,6.97,1.78,11.59,3.38,21.95,5.11,33.17,13.06-3.68,25.08-7.08,37.41-10.56-2.06-10.34-3.84-19.27-5.89-29.58Z"/>
</svg>