<?xml version="1.0" encoding="UTF-8"?>
<svg id="Background" xmlns="http://www.w3.org/2000/svg" viewBox="0 0 384.96 419.91">
  <path d="M181.05,103.48c2.06-2.64,3.39-4.17,4.53-5.82,20.63-29.9,47.78-52.29,80.22-68.09,10.07-4.9,21.11-8.54,32.12-10.64,42.89-8.17,76.78,15.54,84.87,58.38,4.23,22.42,1.84,44.41-3.25,66.41-12.75,55.09-35.66,106-62.79,155.28-15.22,27.64-29.66,55.71-44.55,83.54-3.51,6.56-7.35,12.95-11.17,19.34-6.94,11.6-17.44,17.18-30.75,18.04-17.57,1.14-34.51-1.03-51.1-7.46-53.71-20.83-95.47-56.68-128.43-102.99C21.16,267.9,3.94,221.32,0,170.26c-2.09-27.01,3.09-52.92,13.95-77.75,12.76-29.19,31.37-53.87,56.82-73.12,7.04-5.32,14.55-10.25,22.43-14.16,19.64-9.75,39.38-5.74,53.87,10.89,4.83,5.55,8.97,11.96,12.23,18.57,9.12,18.49,16.55,37.64,19.54,58.23.45,3.07,1.26,6.08,2.2,10.55ZM178.02,172.32c-8.85-9.35-12.74-18.03-14.14-28.05-1.67-11.93-3.65-23.83-5.39-35.75-2.72-18.67-6.96-37.01-14.45-54.32-3.75-8.66-8.76-17.03-14.53-24.5-6.05-7.84-15.03-9.72-23.92-4.96-8.38,4.49-17,9.22-23.97,15.54-37.25,33.84-56.35,75.97-54.37,126.58,1.24,31.69,11.26,61.24,26.02,89.12,24.1,45.52,59.13,81.35,101.06,110.42,19.88,13.78,42.46,22.61,65.92,28.87,7.07,1.89,12.5.1,16.44-6.2,4.51-7.21,9.52-14.14,13.68-21.54,19.1-34.01,38.09-68.08,56.91-102.24,24.64-44.73,43.2-91.7,50.96-142.47,2.54-16.64,2.53-33.28-3.35-49.38-6.46-17.69-19-27.71-37.98-29.38-11.9-1.04-23.58.46-34.35,5.34-47.21,21.43-83.52,53.17-97.94,105.25-1.47,5.31-3.85,10.36-6.62,17.66Z"/>
  <path d="M177.56,222.02c3.21-4.97,5.1-7.88,6.97-10.81,11.84-18.44,26.67-34.02,44.93-46.13,4.95-3.28,10.48-6.09,16.14-7.81,15.08-4.57,26.76,2.5,30.4,17.9,2.34,9.87,2.04,19.95-.85,29.48-4.3,14.19-8.54,28.61-14.97,41.89-14.19,29.33-29.59,58.08-44.75,86.94-10.81,20.56-21.84,22.4-39.3,7.44-21.36-18.3-40.92-38.18-56.76-61.58-13.4-19.79-21.75-41.25-23.2-65.26-.93-15.46,2.85-29.56,12.12-41.99,16.29-21.83,39.81-20.92,53.17,2.75,5.49,9.73,8.45,20.92,12.25,31.55,1.52,4.25,2.2,8.81,3.84,15.62ZM253.64,177.28c-6.15,3.46-9.66,5.09-12.81,7.25-15.37,10.56-28.75,23.32-38.77,39.04-6.64,10.41-12.07,21.63-17.49,32.76-4.08,8.38-9.35,9.51-14.78,2.09-2.04-2.8-3.44-6.2-4.56-9.51-4.99-14.78-9.56-29.71-14.74-44.41-2.46-6.97-5.29-13.98-9.18-20.21-4.52-7.23-8.87-6.92-14.01-.06-1.68,2.24-2.96,4.85-4.05,7.45-3.88,9.21-3.36,18.76-1.62,28.29,3.11,17.01,9.41,32.92,19.93,46.57,13.85,17.96,28.66,35.19,43.23,52.59,2.4,2.86,5.7,4.98,9.14,7.92,2.79-4.17,5.09-7.3,7.06-10.61,17.78-29.94,33.53-60.91,45.98-93.45,3.27-8.55,5.41-17.64,7.04-26.66.95-5.3-.13-10.96-.38-19.02Z"/>
</svg>