<?xml version="1.0" encoding="UTF-8"?>
<svg id="Background" xmlns="http://www.w3.org/2000/svg" viewBox="0 0 443 435.09">
  <path d="M300.47,128.05c-31.08-11.74-55.21,15.39-69.08,39.36-9.4,16.24,15.74,30.92,25.14,14.69,5.77-9.98,27.84-42.58,39.84-21.04,10.03,18-8.15,44.59-17.35,59.54-12.09,19.64-27.08,37.27-44.33,52.57-9.21,8.17-19.03,15.56-27.86,23.91-4.69-13.12-10.41-25.87-17.16-38.05-5.3-9.57-11.3-18.71-17.83-27.48-6.12-8.22-13.45-16.63-17.1-26.32-5.54-14.74,5.61-28.53,21.2-28.34,17.75.21,27.76,18.43,29.93,33.84,1.09,7.79,11.03,12.06,17.9,10.17,8.38-2.3,11.26-10.09,10.17-17.9-3.48-24.78-22.03-48.5-47.13-53.98-23.76-5.19-50.09,7.63-59.53,30.26-11.73,28.14,8.82,51.64,23.96,73.22,16.81,23.95,28.61,50.51,35.48,78.92,2.93,12.11,20.6,14.28,26.6,3.48,6.86-12.35,17.72-21.12,28.52-29.91,10.81-8.8,21.25-17.93,30.74-28.17,20.23-21.84,37.26-47.21,48.65-74.77,10.61-25.68,9.75-62.45-20.76-73.98Z"/>
  <path d="M420.92,85.82c-21.95,10.98-43.89,21.96-65.84,32.94-16.76,8.38-2.03,33.5,14.69,25.14,21.95-10.98,43.89-21.96,65.84-32.94,16.76-8.38,2.03-33.5-14.69-25.14Z"/>
  <path d="M208.72,10.5c-3.46-18.39-31.52-10.6-28.07,7.74,3.8,20.21,5.82,40.55,6.31,61.11.44,18.7,29.55,18.77,29.11,0-.55-23.13-3.08-46.12-7.35-68.85Z"/>
  <path d="M111.42,136.36c-19.04-15.36-36.9-32-53.57-49.91-12.79-13.74-33.35,6.88-20.58,20.58,16.67,17.9,34.54,34.55,53.57,49.91,6.11,4.93,14.61,5.97,20.58,0,5.1-5.1,6.15-15.62,0-20.58Z"/>
  <path d="M99.47,219.91c-28.36,1.26-56.69.33-84.91-2.79C6.73,216.25,0,224.43,0,231.67,0,240.26,6.71,245.36,14.56,246.23c28.22,3.12,56.55,4.06,84.91,2.79,18.66-.83,18.76-29.95,0-29.11Z"/>
  <path d="M113.16,302.61c-13.21,19.3-26.42,38.59-39.62,57.89-10.61,15.5,14.61,30.07,25.14,14.69,13.21-19.3,26.42-38.59,39.62-57.89,10.61-15.5-14.61-30.07-25.14-14.69Z"/>
  <path d="M291.33,410.48c-8.13-16.35-13.13-34.11-14.63-52.31-1.52-18.54-30.65-18.7-29.11,0,1.94,23.6,8.06,45.79,18.6,67,8.34,16.78,33.45,2.05,25.14-14.69Z"/>
  <path d="M407.23,321.12c-.75-7.82-6.15-14.56-14.56-14.56-.52,0-1.05.04-1.57.11-16-11.81-32-23.62-48-35.43-6.33-4.67-16.25-1.05-19.91,5.22-4.33,7.4-1.12,15.23,5.22,19.91,18.59,13.72,37.18,27.44,55.78,41.17,4.66,3.44,13.96,2.34,17.64-2.28,3.59-4.51,5.98-8.22,5.41-14.15Z"/>
</svg>