<?xml version="1.0" encoding="UTF-8"?>
<svg id="Background" xmlns="http://www.w3.org/2000/svg" viewBox="0 0 307.24 358.29">
  <path d="M303.82,119.68c-14.22-28.58-51.46-16.64-69.14,3.43-14.07-18.39-44.16-33.15-61.93-14.29-9.72,10.32-11.57,26.24-7.7,39.44,4.27,14.56,14.54,25.49,26.36,34.44,12.72,9.62,26.54,17.89,39.88,26.62,6.87,4.5,13.92,8.91,22.15,4.41,6.51-3.56,11.88-10.85,16.76-16.31,10.51-11.75,20.96-24.36,29.2-37.84,7.33-12,10.98-26.73,4.42-39.9ZM277.5,138.61c-2.94,9.16-11.25,18.2-17.18,25.59-3.45,4.31-7.03,8.52-10.71,12.64-1.66,1.85-3.64,4.49-5.71,6.9-3.36-2.38-6.7-5.29-9.67-7.24-5.31-3.48-10.63-6.94-15.94-10.43-8.63-5.68-18.6-11.86-23.46-21.36-1.83-3.58-3.09-7.7-2.49-11.76.16-1.07.45-2.04.82-3.03.21-.01.42-.02.68-.04.42.03.83.06,1.25.1,9.77,2.37,15.94,7.72,19.94,16.95,3,6.94,12.91,8.7,19.18,5.6,6.31,3.85,14.82,3.45,19.02-5.08,3.32-6.75,8.18-11.85,15.5-14.19,6.73-2.15,11.25-2.35,8.78,5.36Z"/>
  <path d="M169.27,31.69c-2.89-18.57-20.83-33.45-39.89-29.13-12.73,2.88-24.96,11.42-35.08,21.08C75.53-2.82,25.59-13.1,16.77,25.05c-4.89,21.19,9.09,38.38,23.11,52.36,13.73,13.69,28.66,26.11,36.6,44.24,3.6,8.22,17.27,9.59,22.86,2.95,13.19-15.69,28.19-28.57,44.09-41.38,15.57-12.55,29.14-30.35,25.84-51.52ZM137.69,47.37c-6.32,10.8-18.54,17.83-27.95,25.64-6.4,5.31-12.44,11-18.22,16.94-11.59-15.39-27.19-27.37-39.75-42.29-3.04-3.61-13-18.99-2.02-18.74,7.23.17,22.39,6.61,22.56,15.08.17,8.32,6.03,12.95,12.45,13.87,5.15,4.66,12.82,5.81,18.52-1.14,7.97-9.71,17.43-18.68,28.83-24.26,9.77-4.78,9.81,7.66,5.58,14.88Z"/>
  <path d="M163.62,200.98c-6.36-8.89-17.41-12.13-27.95-11.25-14.06,1.16-26.83,6.88-37.31,15.61-2.06-4.67-4.59-9.2-7.43-13.64-6.63-10.36-14.04-21.46-24.67-28.12-25.59-16.03-53.97,3.79-58.19,31.05-9.14,58.97,48.82,95.32,68.98,144.03,2.26,5.47,5.81,9.68,12.1,10.43,5.2.62,12.2-1.65,14.5-6.95,8.4-19.37,16.95-38.58,31.92-53.84,16.04-16.35,30.26-31.93,33.46-55.61,1.48-10.92,1.21-22.46-5.41-31.72ZM139.57,232.93c-1.63,6.99-4.81,13.37-9.31,18.96-9.49,11.79-21.29,21.11-30.08,33.61-3.81,5.43-7.12,11.15-10.16,17.03-5.47-8.51-11.48-16.7-17.75-24.9-12.01-15.7-25.1-32.01-31.7-50.89-2.96-8.46-5.49-18.25-4.04-27.29.89-5.49,4.71-13.94,11.6-12.48,7.01,1.48,12.47,11.56,16.05,16.97,4.95,7.49,10.32,15.41,10.68,24.64.41,10.54,9.86,15.15,17.89,13.81,5.61,1.47,12.01.05,16.11-6.07,5.9-8.81,19.13-19.4,30.68-17.68.39.13.68.2.88.21.23.89.36,1.79.29,2.72.3,3.79-.28,7.69-1.14,11.36Z"/>
</svg>