<?xml version="1.0" encoding="UTF-8"?>
<svg id="Background" xmlns="http://www.w3.org/2000/svg" viewBox="0 0 400.89 378.58">
  <path d="M282.53,0c23.03,3.9,30.63,23.43,32.62,44.52l19.26.33c6.76.12,13.1,1.44,19.5,3.63,24.47,9.75,30.72,30.38,32.25,54.84l3,47.99,2.22,24.14c2.34,25.48,4.9,50.63,6.02,76.18l.31,7.08.1,9.73c0,.14.44.79.37.62v25.83c.07-.18-.37.49-.37.61-.02,2.96.06,7.5-.17,10.75-1.02,14.52-2.47,27.78-9.3,40.8-1.42,2.7-3.29,5.25-5.3,7.28l-3.19-2.33c-.09.99.08,1.41.58,2.33l-3.58,2.48-1.04,1.97c-.73.61-.99,1.17-.45,2.28-16.46,12.38-53.72,14.93-74.15,14.98l-79.92.22c-.19,0-.88.33-.82.36h-110.25c.16.06-.45-.34-.68-.35l-13.47-.2c-16.32-.25-32.27-.98-48.5-3.04-16.77-2.13-30.17-7.74-37.84-23.64-3.1-6.43-5.21-12.96-5.64-20.15l-.3-5.13c-.02-.28-.24-.98-.34-1.07v-12.34l.54-7.66.23-3.94,2.85-41.28,1.97-32.34,8.01-119.3c.43-6.33,1.06-12.21,2.1-18.35,2.98-17.6,11.85-32.47,29.31-38.57,12.46-4.35,28.12-3.19,41.45-1.66,1.43-11.62,5-24.88,12.72-33.95C110.81,4.02,123.41.2,135.69,2.59c9.8,1.9,17.93,7.44,23.07,16.03,5.44,9.08,6.72,16.2,7.76,26.84l11.17-.22,33.3-.37,32.3-.27c1.2-13.6,5.07-27.78,15.36-37.28,4.64-4.28,10.18-6.31,16.17-7.3h7.71ZM261.71,44.39l35.18-.03c-1.07-10.17-4.81-24.57-16.58-26.29-4.27-.78-8.09,1.03-11.01,4.23-4.84,6.18-6.74,14.11-7.59,22.09ZM148.48,45.96c-.56-4.16-1.18-7.39-2.08-10.88-2.55-7.2-6.09-12.73-13.85-14.58s-14.92,1.72-18.63,8.69c-3.25,6.12-5,12.7-5.84,19.76,3.33-.8,6.65-1.5,10.2-1.66l30.19-1.33ZM357.31,121.22l11.86.15-2.08-25.15c-.42-5.09-1.56-9.95-3.49-14.63-3.44-8.37-10.21-14.43-18.88-16.91-5.63-1.61-11.22-1.84-17.08-1.91l-16.32-.2-49.62-.08c.61,7.3,3.43,18.75,9.86,22.78,2.46,1.4,4.85,1.07,6.78-.86,3.51-3.49,9.34-3.68,12.73-.14,4.52,4.72,2.78,11.19-1.95,14.84-8.94,6.9-20.78,7.1-29.76-.15-10.84-8.82-14.79-22.31-15.99-36.26l-39.12.24-69.31-.47c-8.73-.12-18.69.09-27.01-2.04.82,8.81,4.1,21.06,11.84,25.93,1.85,1.17,4.49,1.89,6.6,1.04,1.93-.78,3.35-2.54,4.74-4.02,3.2-3.41,8.23-4.17,11.89-1.52s4.88,7.53,2.57,11.7c-1.69,3.05-4.28,5.4-7.13,7.58-6.3,4.83-14.54,6-22.22,3.5-17.82-5.81-25.22-26.46-26.63-43.41-10.75,1.99-18.97,1.51-29.41,3.24-12.59,2.75-18.12,8.9-21.84,21.04-1.73,8.06-2.78,15.98-3.41,24.25l-1.35,17.68,58.77-1.61,82.63-2.23c39.13-1.06,77.98-2.2,117.03-2.38l42.9-.2,22.38.18ZM78.1,357.47l56.93,1.55h30.95s38.08-.38,38.08-.38l38.56-.4,53.39-.18c18.16-.06,61.24-1.07,73.5-15.91,4.07-4.92,6.36-10.81,7.54-17.09,1.53-8.15,2.42-15.97,2.75-24.28.74-18.37.57-36.45-.93-54.87l-5.41-66.67-3.28-39.99-93.92.11-23.65.4-18.56.39-18.2.38-85.59,2.18-90.12,2.4c-2.79.07-5.05.01-7.78-.08l-4.25,66.93-2.88,49.27-3.21,46.32c-.54,7.85-.6,15.26.62,22.93.99,6.23,3.42,11.93,7.52,16.7,3.77,4.39,11.41,6.43,17.03,7.26,10.35,1.53,20.4,2.72,30.91,3.01Z"/>
  <path d="M291.1,329.94c-25.1-6.13-38.24,9.19-64.09,1.12-5.24-1.64-10.26-3.09-15.79-3.26-14.51-.45-23.44,4.86-36.92,7.66-7.56,1.57-15.27,1.91-22.74-.17-11.61-3.24-15.81-10.65-27.38-8.32-4.78.96-8.79,2.96-12.54,6.04-2.85,2.33-7.38.6-8.85-2.46-1.19-2.46-.61-4.99,1.31-6.72,5.05-4.53,11.14-7.09,17.77-8.47,6.83-1.42,13.54-.69,19.75,2.57l8.53,4.48c11.55,6.07,26.16.85,37.65-2.8,9.54-3.04,19.22-4.38,29.19-3.07,11.18,1.47,17.92,6.8,30.85,4.8,18.99-2.94,25.05-6.96,45.65-3.2,3.73.68,6.47,3.27,5.78,7.15s-4.31,5.6-8.15,4.66Z"/>
  <path d="M292.77,297.56c-9.27-1.94-18.08-2.08-27.16-.27l-13.52,2.69c-9.18,1.83-17.99.8-26.83-2.15-9.71-3.23-19.61-3.82-29.4-.95l-12.55,3.68c-15.88,4.65-28.28,5.86-43-2.9-3-1.78-6.23-3.41-9.75-3.75-6.09-.59-12.46,1.46-17.18,5.17-2.1,1.65-3.8,2.97-6.51,2.15-2.05-.62-3.97-2.14-4.56-4.67-.49-2.12.33-4.24,2.05-5.66,5.19-4.31,11.32-6.92,17.97-8.23,19.72-3.86,23.98,10.51,41.24,9.7,4.99-.23,9.73-1.06,14.51-2.47l14.04-4.13c7.73-2.28,15.67-2.97,23.71-2.04,5.19.6,9.93,2.09,14.85,3.6,10.3,3.16,19.61,1.36,29.93-.92,4.75-1.05,9.37-1.82,14.23-2.26,6.4-.58,12.54.48,18.79,1.51,3.49.58,5.91,2.91,5.78,6.4-.11,2.91-2.98,6.26-6.62,5.5Z"/>
  <path d="M291.75,263.75c-26.41-6.72-38.75,10.25-67.07.37-12.92-4.51-23.96-2.78-36.64,1.43-39.53,13.1-44.83-3.77-57.09-5.15-6.35-.72-13.03,1.22-17.86,5.29-2.36,1.98-4.9,2.88-7.65,1.35-2.36-1.31-4.06-4.26-2.86-7.23.68-1.69,2.28-3.09,3.88-4.22,9.13-6.43,23.51-9.76,33.95-4.37l8.39,4.33c24.61,12.71,43.03-14.65,79.88-2.38,23.13,7.71,33.46-7.08,64.89-1.32,3.62.66,6.27,3.13,5.75,6.84-.47,3.43-3.95,5.98-7.56,5.06Z"/>
  <path d="M197.33,209.5l1.51-27.53-5.84,5.29c-2.72,2.46-5.58,4.78-9.14,5.91-2.78.88-5.43-.61-6.8-2.8-1.46-2.33-1.18-5.69.97-7.73,7.87-7.46,16.02-16.26,21.97-25.38,2.1-3.21,6.22-4.37,9.8-3.14,3.2,1.1,5.6,4.38,5.46,8.29l-.6,17.25-1.52,29.64-.46,16.9c-.13,4.72-3.89,7.98-8.4,7.86s-8.02-3.58-7.79-8.19l.84-16.36Z"/>
</svg>