<?xml version="1.0" encoding="UTF-8"?>
<svg id="Background" xmlns="http://www.w3.org/2000/svg" viewBox="0 0 398.67 382.22">
  <path d="M184.5,2.55c23.67,5.35,44.57,18.8,58.53,39.09,2.98,4.33,5.52,8.49,7.74,13.33,15.59,33.96,14.02,74.42-1.68,108.13-6.37,13.68-19.43,31.03-31.17,40.49.82,4.26.61,8.06.3,12.1-.45,5.9,2.02,11.26,6.66,14.78,5.74,4.35,11.99,7.39,18.92,9.49l21.34,6.47c6.37,1.93,12.09,4.42,18.06,7.32,8.96,4.36,17.08,9.77,23.98,16.97,13.26,13.82,17.64,30.68,20.27,49.17,1.08,7.6,1.73,14.93,1.15,22.54s-3.19,14.39-8.65,19.49c-10.26,9.57-24.22,8.42-37.58,9.16l-77.81,4.32-50.06,3.03-4.43.23c-2.43.13-9-.12-9.51.5H50.35c-6.69-1.08-13.47-1.98-20.07-4.55s-13.32-6.19-18.09-11.73c-5.95-6.91-9.17-15.45-9.68-24.57-.04-.65-.14-1.31-.34-1.55v-8.87c1.83-20.56,7.12-40.75,19.11-58.31,14.48-21.2,36.37-31.5,61.5-34.07,8.64-.88,22.26-2.77,27.71-10.21,4.54-6.19,5.32-13.92,6.35-21.23-4.08-3.41-7.57-6.83-10.97-10.74-1.69-1.94-3.47-3.72-5.05-5.8-4.88-6.4-9.4-12.86-13.13-20.04-5.26-10.11-9.56-20.38-12.37-31.43-3.62-14.27-5.65-28.49-5.17-43.16.71-21.57,5.32-40.92,18.76-58.02,1.32-1.68,2.7-3.12,4.15-4.71,6.99-7.69,15.42-13.63,24.71-18.34,8.52-4.32,17.29-6.92,26.24-9.31h40.47ZM189.56,196.52c9.46-5.33,17.63-12.11,24.69-20.48,7.65-9.06,13.99-19.08,18.17-30.29,6.93-18.58,8.69-38.7,5.52-58.2-2.81-17.28-10.6-33.02-23.46-44.79-6.67-6.11-13.83-11.12-22.22-14.45-16.51-6.54-32.7-6.46-49.74-1.88-12.77,3.43-24.44,9.62-33.48,19.37-7.93,8.56-12.64,19.13-14.86,30.6-5.05,26.09.3,56.88,12.95,80.2,6.99,12.87,13.97,21.78,25.04,31.23,16.92,14.44,36.94,20.2,57.38,8.68ZM250.04,350.49l34.81-1.25c5.83-.21,11.45-.55,17.04-1.82,2.6-.59,4.01-2.38,4.38-4.96,1.48-10.36-.99-22.56-3.32-32.83-1.25-5.49-3.08-10.44-5.73-15.39-2.85-5.32-6.84-9.45-11.68-13.08-11.33-8.49-22.32-11.42-35.69-15.54-8.45-2.6-16.53-5.32-24.56-8.98-15.75-7.18-29.57-19.87-29.15-38.53l-6.38,2.93c-13.59,4.83-28.03,5.1-41.88.82-4.59-1.42-8.72-3.46-13.03-5.39-.6,7.22-2.08,14.07-5.82,20.13-6.08,9.87-16.19,15.95-27.4,18.46-12.73,2.85-26.84,3.13-38.44,7.96-20.71,8.63-32.41,29.66-36.53,50.82-1.92,9.87-4.34,24.32,1.24,33.07,6.07,9.51,33.53,10.49,43.85,10.84,7.81.26,15.25.3,23.11.04l60.3-2,62.8-3.33,32.06-1.98Z"/>
  <path d="M396.89,83.12v4.17c-1.58,4.5-5.36,7.65-10.43,7.04-18.28-2.2-26.66,3.39-41.81,1.76-17.68-1.9-16.03-9.96-28.03-1.45-4.33,3.07-10.17,1.76-12.82-2.61-2.81-4.64-.97-9.63,3.38-12.66,5.41-3.78,11.15-6.72,18-6.47,12.43.45,16.27,7.43,31.24,4.79,5.81-1.03,11.47-1.71,17.37-2.17,4.66-.36,9.17.12,13.81.35s8.04,2.98,9.29,7.25Z"/>
  <path d="M396.89,137.85v3.85c-1.42,5.02-5.38,8.18-10.85,7.5-16.48-2.04-24.78,3.01-41.49,1.59-5.54-.47-10.62-2.01-15.62-4.32s-8.16.44-12.95,3.27c-4.27,2.52-9.84,1.2-12.24-2.95s-1.19-9.33,2.85-12.19c10.25-7.26,18.53-9.12,30.58-4.22,5.68,2.31,11.58,3.28,17.71,2.38l12.37-1.83c6.94-1.03,13.63-.85,20.56-.3,4.51.36,7.83,2.98,9.09,7.21Z"/>
  <path d="M396.89,192.98v3.47c-1.39,4.88-5.47,7.99-10.83,7.39-6.6-.74-13.01-.57-19.57.44-13.23,2.05-24.14,2.86-36.59-2.8-5.09-2.31-8.51-.85-13.03,2.46s-10.4,2.06-13.08-2.45-.96-9.73,3.46-12.69c4.94-3.31,9.97-6.14,16.12-6.42,4.38-.2,8.69.59,12.83,2.24,10.95,4.37,15.45,3.59,26.75,1.69,9.1-1.53,18.19-2.22,27.31-.56,3.68.67,5.64,4.04,6.63,7.22Z"/>
  <path d="M292.24,197.25c-.13,4.27-3.28,7.38-6.91,8.13-4.05.84-7.53-1.39-9.57-5s-2.43-8.08.47-11.23c1.78-1.93,3.96-3.27,6.37-3.28,6.27-.02,9.78,6.97,9.64,11.37Z"/>
  <path d="M292.07,140.73c.82,4.68-2.21,8.81-6.28,9.83-4.38,1.1-8.16-1.19-10.22-5.22-1.96-3.82-2.16-8.22,1.08-11.35,1.93-1.86,4.29-3.02,7.01-2.69,4.63.56,7.6,4.78,8.41,9.42Z"/>
  <path d="M292.08,86.06c.96,5.41-3.61,10.3-8.77,10.06-3.91-.18-6.45-3.1-8.05-6.3-1.82-3.65-1.44-7.71,1.26-10.51s6.98-3.88,10.51-1.61c2.71,1.75,4.44,4.9,5.05,8.36Z"/>
</svg>