<?xml version="1.0" encoding="UTF-8"?>
<svg id="Background" xmlns="http://www.w3.org/2000/svg" viewBox="0 0 367.62 349.19">
  <path d="M342.8,106.49c-32.92,30.55-65.84,61.11-98.77,91.66-3.38-9.55-5.81-19.56-8.67-29.09-4.76-15.88-9.47-31.78-13.97-47.73-9.33-33.03-17.73-66.31-24.16-100.04-2.85-14.93-24.01-12.71-28.07,0-10.9,34.18-21.81,68.36-32.71,102.55-8.88,27.84-17.63,55.76-30.28,82.08-24.03-15.4-47.43-31.78-69.97-49.3-5.73-4.45-12.97-6.03-19.11-1.14-5.45,4.34-7.72,12.55-3.75,18.78,30.74,48.14,56.11,99.43,75.31,153.23,2.56,7.17,9.95,12.71,17.9,10.17,56.03-17.94,115.71-18.45,172.02-1.36,17.97,5.45,25.65-22.63,7.74-28.07-56.7-17.21-117.66-18.02-174.73-2.41-11.27-29.84-24.27-58.98-38.99-87.23,10.5,7.1,21.13,14.01,31.91,20.7,6.55,4.06,16.2,1.54,19.91-5.22,17.17-31.28,28.22-65.25,39.03-99.12,5.72-17.93,11.44-35.86,17.16-53.79,4.23,17.2,8.84,34.3,13.68,51.34,4.86,17.09,9.93,34.11,15.05,51.12,4.74,15.75,8.85,31.97,17.27,46.25,4.9,8.31,16.01,9.3,22.86,2.95,19.66-18.25,39.33-36.5,58.99-54.75-1.33,3.45-2.63,6.91-3.89,10.39-4.81,13.28-9.08,26.76-12.79,40.39-2.98,10.94-4.84,22.26-7.49,33.29-.98.79-1.84,1.72-2.52,2.8-18.61-7-38.05-11.12-58.15-11.97-27.37-1.16-55.05.62-82.43,1.16-18.71.37-18.77,29.48,0,29.11,47.99-.94,98.25-7.44,142.9,14.12,10.9,5.27,20.94-3.46,22.04-12.46,4.41-4.82,5.16-11.7,6.51-18.2,3.43-16.49,7.68-32.81,12.71-48.88,10.2-32.58,23.77-63.82,40.32-93.67,8.09-14.59-10.71-28.91-22.86-17.64Z"/>
  <path d="M338.7,329.58c-.49-1.16-.98-2.32-1.47-3.48-1.29-2.19-3.03-3.93-5.22-5.22-.72-.36-1.45-.73-2.17-1.09-1.67-1.06-3.47-1.64-5.41-1.73-1.93-.43-3.87-.35-5.8.26-1.89.45-3.54,1.32-4.95,2.61-1.58,1.03-2.83,2.39-3.75,4.08-.49,1.16-.98,2.32-1.47,3.48-.69,2.58-.69,5.16,0,7.74.49,1.16.98,2.32,1.47,3.48,1.29,2.19,3.03,3.93,5.22,5.22.72.36,1.45.73,2.17,1.09,1.67,1.06,3.47,1.64,5.41,1.73,1.93.43,3.87.35,5.8-.26,1.89-.45,3.54-1.32,4.95-2.61,1.58-1.03,2.83-2.39,3.75-4.08.49-1.16.98-2.32,1.47-3.48.69-2.58.69-5.16,0-7.74Z"/>
</svg>