<?xml version="1.0" encoding="UTF-8"?>
<svg id="Background" xmlns="http://www.w3.org/2000/svg" viewBox="0 0 1189.59 131.51">
  <path d="M956.54,70.7c-23.95-.64-47.68-1.19-71.41-1.94-127.33-4.04-254.67-8-382-12.26-149.37-5-298.74-6.14-448.15-2.2-10.99.29-22.01.51-32.99.16-5.61-.18-11.29-1.25-16.69-2.8-2.24-.64-5.16-3.51-5.29-5.53-.13-1.97,2.49-5.1,4.64-6.03,4.84-2.09,10.05-3.72,15.26-4.49,30.51-4.52,60.95-10.5,91.64-12.72,86.39-6.26,172.98-8.62,259.59-7.42,87.64,1.21,175.28,3.16,262.89,5.96,100.37,3.21,200.7,7.71,301.05,11.65,3.89.15,7.78.39,12.6.64-.63-4.01-1.14-7.02-1.58-10.03-2.28-15.59,7.53-25.81,23.09-23.32,26.62,4.26,53.24,8.59,79.71,13.69,29.95,5.78,59.77,12.27,89.56,18.81,12.11,2.66,24.03,6.18,36,9.46,8.13,2.23,14.29,6.87,15.15,15.8.8,8.29-3.43,14.47-10.71,18.03-8.58,4.19-17.23,8.48-26.28,11.42-36.09,11.71-72.34,22.91-108.55,34.28-8.12,2.55-16.2,5.27-24.42,7.45-29.15,7.72-50.72-5.09-57.8-34.25-1.92-7.9-3.47-15.89-5.3-24.35Z"/>
</svg>