<?xml version="1.0" encoding="UTF-8"?>
<svg id="Background" xmlns="http://www.w3.org/2000/svg" viewBox="0 0 251.56 247.57">
  <path d="M117.53,119.87c-4.38-16.08-8.37-32.28-13.24-48.25-4.18-13.69-10.4-26.77-21.92-36.93-13.27-11.7-33.86,6.46-20.58,18.16,9.36,8.26,12.73,19.38,15.84,30.42,4.07,14.45,7.9,28.95,11.84,43.42,4.37,16.06,32.45,9.26,28.07-6.83Z"/>
  <path d="M164.31,115.29c-2.78-16.27-5.87-32.49-9.34-48.66-3.25-15.16-5.59-29.88-16.75-42.26-4.89-5.43-15.47-4.51-20.58,0-6.08,5.37-4.91,12.71,0,18.16,3.85,4.28,4.68,10.59,5.9,15.79,1.65,7.05,3.16,14.12,4.64,21.2,2.96,14.16,5.62,28.36,8.05,42.6,1.17,6.86,10.97,10.65,17.9,8.97,8.32-2.02,11.34-8.91,10.17-15.8Z"/>
  <path d="M222.45,110.17c-1.31,26.25-2.46,55.76-22.66,76.89-15.4,16.11-38.57,26.54-62.35,28.52-53.63,4.45-98.3-33.01-109-77.49-3.89-16.16-31.96-9.32-28.07,6.83,10.47,43.48,48.54,82.05,97.92,93.4,48.19,11.08,102.31-6.46,130.46-42.72,19.3-24.86,21.36-56.3,22.81-85.43.82-16.52-28.29-16.49-29.11,0Z"/>
</svg>