<?xml version="1.0" encoding="UTF-8"?>
<svg id="Background" xmlns="http://www.w3.org/2000/svg" viewBox="0 0 428.16 421.58">
  <path d="M225.67,129.99c-6.13-4.91-14.6-5.99-20.58,0-5.09,5.09-6.17,15.64,0,20.58,21.79,17.45,36.34,45.62,31.03,74.05-4.96,26.58-29.78,43.71-55.5,31.42-12.14-5.8-20.88-16.51-25.98-28.81-4.61-11.09-9.42-29.29-5.27-41.03,3.47-9.82,19.44-8.96,27.83-7.62,13.18,2.11,7.14,16.46-.55,21.82-15.27,10.63-.73,35.88,14.69,25.14,15.18-10.57,25.74-27.02,22.13-46.12-3.49-18.5-18.7-28.31-36.45-29.94-15.32-1.4-33.44.29-45.17,11.37-14.01,13.23-13.55,33.64-11.01,51.29,4.93,34.41,26.92,67.59,62.54,75.48,36.06,7.98,69.06-14.59,79.36-49.26,11.61-39.08-5.96-83.47-37.05-108.37Z"/>
  <path d="M164.98,297.86c-6.31-3.69-16.57-1.93-19.91,5.22-9.46,20.21-18.93,40.41-28.39,60.62-4.6,9.83-9.21,19.66-13.81,29.49-1.56,3.34-2.84,6.62-3.46,9.77-.03.15-.06.3-.09.46-1.07,6.05.41,11.61,7.32,16.18,5.06,3.35,13.58,2.34,17.64-2.28l.61-.7c2.64-3,4.33-7.11,4.24-11.15,13.69-29.23,27.38-58.47,41.07-87.7,3.33-7.11,1.99-15.69-5.22-19.91Z"/>
  <path d="M277.63,14.26c-15.47,30.32-30.94,60.65-46.41,90.97-8.5,16.65,16.61,31.4,25.14,14.69,15.47-30.32,30.94-60.65,46.41-90.97,8.5-16.65-16.61-31.4-25.14-14.69Z"/>
  <path d="M414.15,156.48c-37.2,2.17-74.37,4.82-111.5,7.96-18.53,1.56-18.7,30.69,0,29.11,37.13-3.13,74.3-5.79,111.5-7.96,18.62-1.09,18.75-30.2,0-29.11Z"/>
  <path d="M147.64,122.14c-7.65-17.06-15.29-34.11-22.94-51.17-3.7-8.25-7.3-16.56-11.1-24.76-3.45-7.45-8.14-14.65-16.92-15.99-7.76-1.18-15.65,1.96-17.9,10.17-1.74,6.33,1.72,15.14,8.37,17.44,2.53,4.67,4.39,9.92,6.5,14.63,3.21,7.15,6.41,14.31,9.62,21.46,6.41,14.31,12.83,28.61,19.24,42.92,3.22,7.17,13.65,8.89,19.91,5.22,7.38-4.32,8.45-12.71,5.22-19.91Z"/>
  <path d="M92.16,176.69c-19.34-10.9-39.18-20.78-59.53-29.64-7.2-3.13-15.62-2.12-19.91,5.22-3.6,6.16-2.02,16.76,5.22,19.91,20.35,8.86,40.2,18.74,59.53,29.64,16.34,9.21,31.03-15.93,14.69-25.14Z"/>
  <path d="M85.15,224.65c-23.6,8.03-46.14,18.68-67.14,32.13-8.38,5.37-10.52,20.32,0,25.14,3.77,1.73,6.93,3.09,11.16,2.58,5.73-.69,10.88-3.62,13.22-8.5,16.03-9.43,32.81-17.26,50.49-23.28,17.64-6,10.07-34.13-7.74-28.07Z"/>
  <path d="M299.12,317.34c-10.16-11.17-19.85-22.73-28.88-34.84-4.69-6.29-12.59-9.51-19.91-5.22-6.2,3.63-9.95,13.58-5.22,19.91,10.51,14.1,21.59,27.72,33.43,40.73,12.63,13.89,33.17-6.75,20.58-20.58Z"/>
  <path d="M353.18,270.83c-6.14-3.76-12.03-8.57-17.77-12.45-8.43-5.68-16.85-11.36-25.28-17.04-15.58-10.5-30.16,14.71-14.69,25.14,11.9,8.02,23.79,16.03,35.69,24.05,9.92,6.69,23.62,17.56,34.3,5.49,9.83-11.11-1.1-26.42-12.25-25.2Z"/>
</svg>