<?xml version="1.0" encoding="UTF-8"?>
<svg id="Background" xmlns="http://www.w3.org/2000/svg" viewBox="0 0 331.52 547.47">
  <path d="M150.51,155.84c-21.13-12.7-30.94-36.03-36.73-58.99-7.15-28.35-11.46-57.57-16.87-86.28-1.32-7.02-9.37-11.42-15.97-10.43-7.57,1.14-11.91,6.88-12.62,14.3-4.99,52.03-28.11,101.45-64.2,139.14-8.58,8.96-2.46,21.02,6.42,24.21-2.49,4.94-2.46,11.12,2.35,16.33,14.71,15.94,28.31,32.77,40.51,50.71,5.84,8.58,11.2,17.41,16.59,26.27,5.54,9.13,14.79,16.25,25.9,11.38,9.29-4.08,12.42-14.23,16.04-22.88,3.97-9.49,7.63-19.11,11.42-28.67,6.8-17.17,14.47-33.89,25.14-48.97,9.27-4.31,13.54-19.2,2.03-26.11ZM99.91,211.76c-3.37,8.07-6.51,16.23-9.7,24.36-.83,2.11-1.73,5.08-2.76,8.2-1.14-2.12-2.28-4.18-3.47-6.02-5.05-7.77-10.33-15.39-15.85-22.84-10.8-14.59-22.34-28.59-34.65-41.93-1.53-1.66-3.18-2.81-4.87-3.55,22.86-24.93,40.5-53.75,52.36-84.9,2.1,9.81,4.49,19.53,7.38,29.06,6.43,21.18,16.88,41.18,33.02,55.97-8.75,13-15.4,27.13-21.46,41.64Z"/>
  <path d="M330.8,322.3c-3.08-9.96-10.95-14.59-18.42-21.1-6.95-6.07-13.44-12.66-19.42-19.69-11.83-13.92-21.47-30.15-28.18-47.13-5.62-14.23-29.11-13.82-28.59,3.87.76,25.88-7.9,50.83-25.31,70.13-8.92,9.89-1.07,23.21,8.74,25.01-.48.22-.96.46-1.43.73-6.27,3.67-9.86,13.52-5.22,19.91,14.18,19.55,29.08,38.55,44.73,56.95,7.93,9.32,20.53,2.63,24.33-6.42,9.69-23.11,20.98-43.4,40.53-59.59,3.26-2.7,4.71-5.83,4.87-8.92,3.4-3.13,5.17-7.88,3.36-13.74ZM264.5,373.71c-9.08-11.23-17.89-22.66-26.38-34.37-2.74-3.78-6.71-6.4-10.99-7.02,1.51-.75,2.98-1.84,4.35-3.36,12.03-13.33,21.13-28.77,26.86-45.39,2.08,3.08,4.23,6.13,6.51,9.11,5.7,7.44,11.75,14.57,18.42,21.17,3.45,3.42,7.04,6.7,10.74,9.83.82.69,2.82,2.17,4.7,3.53-14.98,13.32-25.49,29.17-34.22,46.49Z"/>
  <path d="M197.33,417.21c-18.77-14.77-35.4-31.92-49.01-51.58-6.33-9.13-18.9-9.58-25.14,0-15.6,23.93-29.86,48.64-42.79,74.12-4.55,8.96.61,17.37,7.67,20.62-3.02,4.97-3.04,11.35,2.78,16.36,21.7,18.66,41.3,39.58,58.01,62.83,6.32,8.79,24.62,10.24,26.6-3.48,4.96-34.21,9.81-69.45,24.14-101.23,2.42-5.36,3.06-13.44-2.28-17.64ZM111.44,456.15c-1.68-1.44-3.44-2.41-5.23-3,9.5-18.64,19.72-36.89,30.66-54.71,9.9,12.1,20.76,23.31,32.71,33.47-8.2,21.16-13.32,43.05-17.26,65.31-12.56-14.67-26.15-28.41-40.88-41.07Z"/>
</svg>